<?xml version="1.0" encoding="utf-8"?>
<svg id="master-artboard" viewBox="0 0 3000 2000" version="1.1" xmlns="http://www.w3.org/2000/svg" x="0px" y="0px" width="3000px" height="2000px" style="enable-background:new 0 0 3000 2000;">

<path d="M 0 0 H 3000 V 2000 H 0 V 0 Z" class="st0" style="fill: rgb(122, 206, 190);" transform="matrix(1, 0, 0, 1, -11.558074094710264, -8.66855525970459)"/><path d="M 0 1662.699951171875 L 0 2000 L 359.8999938964844 2000 L 2537.39990234375 0 L 812.4000244140625 0 Z" class="st1" style="fill: rgb(240, 146, 149);" transform="matrix(0.7096131443977357, 0, 0, 0.7096131443977357, -251.38806942921303, 213.82436639354606)"/><path d="M 1106.199951171875 1314.5999755859375 L 1298.800048828125 2000 L 3000 2000 L 3000 1213.300048828125 L 1500 952.9000244140625 Z" class="st2" style="fill: rgb(240, 146, 149);" transform="matrix(0.5979868173599244, -0.80150705575943, 0.80150705575943, 0.5979868173599244, -1941.4649790866017, 2880.6037000030997)"/><path d="M 323.500006 115.199997 A 9.4 9.4 0 0 1 314.100006 124.599997 A 9.4 9.4 0 0 1 304.700006 115.199997 A 9.4 9.4 0 0 1 314.100006 105.799997 A 9.4 9.4 0 0 1 323.500006 115.199997 Z" class="st3" style="fill: rgb(254, 242, 218);" transform="matrix(1, 0, 0, 1, 0, -7.105427357601002e-15)"/><path d="M 372.9 115.199997 A 9.4 9.4 0 0 1 363.5 124.599997 A 9.4 9.4 0 0 1 354.1 115.199997 A 9.4 9.4 0 0 1 363.5 105.799997 A 9.4 9.4 0 0 1 372.9 115.199997 Z" class="st3" style="fill: rgb(254, 242, 218);" transform="matrix(1, 0, 0, 1, 0, -7.105427357601002e-15)"/><path d="M 422.299994 115.199997 A 9.4 9.4 0 0 1 412.899994 124.599997 A 9.4 9.4 0 0 1 403.499994 115.199997 A 9.4 9.4 0 0 1 412.899994 105.799997 A 9.4 9.4 0 0 1 422.299994 115.199997 Z" class="st3" style="fill: rgb(254, 242, 218);" transform="matrix(1, 0, 0, 1, 0, -7.105427357601002e-15)"/><path d="M 471.699987 115.199997 A 9.4 9.4 0 0 1 462.299988 124.599997 A 9.4 9.4 0 0 1 452.899988 115.199997 A 9.4 9.4 0 0 1 462.299988 105.799997 A 9.4 9.4 0 0 1 471.699987 115.199997 Z" class="st3" style="fill: rgb(254, 242, 218);" transform="matrix(1, 0, 0, 1, 0, -7.105427357601002e-15)"/><path d="M 521.100012 115.199997 A 9.4 9.4 0 0 1 511.700012 124.599997 A 9.4 9.4 0 0 1 502.300013 115.199997 A 9.4 9.4 0 0 1 511.700012 105.799997 A 9.4 9.4 0 0 1 521.100012 115.199997 Z" class="st3" style="fill: rgb(254, 242, 218);" transform="matrix(1, 0, 0, 1, 0, -7.105427357601002e-15)"/><path d="M 570.4 115.199997 A 9.4 9.4 0 0 1 561 124.599997 A 9.4 9.4 0 0 1 551.6 115.199997 A 9.4 9.4 0 0 1 561 105.799997 A 9.4 9.4 0 0 1 570.4 115.199997 Z" class="st3" style="fill: rgb(254, 242, 218);" transform="matrix(1, 0, 0, 1, 0, -7.105427357601002e-15)"/><path d="M 619.800024 115.199997 A 9.4 9.4 0 0 1 610.400024 124.599997 A 9.4 9.4 0 0 1 601.000025 115.199997 A 9.4 9.4 0 0 1 610.400024 105.799997 A 9.4 9.4 0 0 1 619.800024 115.199997 Z" class="st3" style="fill: rgb(254, 242, 218);" transform="matrix(1, 0, 0, 1, 0, -7.105427357601002e-15)"/><path d="M 669.199987 115.199997 A 9.4 9.4 0 0 1 659.799988 124.599997 A 9.4 9.4 0 0 1 650.399988 115.199997 A 9.4 9.4 0 0 1 659.799988 105.799997 A 9.4 9.4 0 0 1 669.199987 115.199997 Z" class="st3" style="fill: rgb(254, 242, 218);" transform="matrix(1, 0, 0, 1, 0, -7.105427357601002e-15)"/><path d="M 718.600012 115.199997 A 9.4 9.4 0 0 1 709.200012 124.599997 A 9.4 9.4 0 0 1 699.800013 115.199997 A 9.4 9.4 0 0 1 709.200012 105.799997 A 9.4 9.4 0 0 1 718.600012 115.199997 Z" class="st3" style="fill: rgb(254, 242, 218);" transform="matrix(1, 0, 0, 1, -28.895184614119444, 0)"/><path d="M 767.999975 115.199997 A 9.4 9.4 0 0 1 758.599976 124.599997 A 9.4 9.4 0 0 1 749.199976 115.199997 A 9.4 9.4 0 0 1 758.599976 105.799997 A 9.4 9.4 0 0 1 767.999975 115.199997 Z" class="st3" style="fill: rgb(254, 242, 218);" transform="matrix(1, 0, 0, 1, -28.895184614119444, 0)"/><path d="M 817.4 115.199997 A 9.4 9.4 0 0 1 808 124.599997 A 9.4 9.4 0 0 1 798.6 115.199997 A 9.4 9.4 0 0 1 808 105.799997 A 9.4 9.4 0 0 1 817.4 115.199997 Z" class="st3" style="fill: rgb(254, 242, 218);" transform="matrix(1, 0, 0, 1, -28.895184614119444, 0)"/><path d="M 323.500006 195.899994 A 9.4 9.4 0 0 1 314.100006 205.299994 A 9.4 9.4 0 0 1 304.700006 195.899994 A 9.4 9.4 0 0 1 314.100006 186.499994 A 9.4 9.4 0 0 1 323.500006 195.899994 Z" class="st3" style="fill: rgb(254, 242, 218);" transform="matrix(1, 0, 0, 1, 0, -7.105427357601002e-15)"/><path d="M 372.9 195.899994 A 9.4 9.4 0 0 1 363.5 205.299994 A 9.4 9.4 0 0 1 354.1 195.899994 A 9.4 9.4 0 0 1 363.5 186.499994 A 9.4 9.4 0 0 1 372.9 195.899994 Z" class="st3" style="fill: rgb(254, 242, 218);" transform="matrix(1, 0, 0, 1, 0, -7.105427357601002e-15)"/><path d="M 422.299994 195.899994 A 9.4 9.4 0 0 1 412.899994 205.299994 A 9.4 9.4 0 0 1 403.499994 195.899994 A 9.4 9.4 0 0 1 412.899994 186.499994 A 9.4 9.4 0 0 1 422.299994 195.899994 Z" class="st3" style="fill: rgb(254, 242, 218);" transform="matrix(1, 0, 0, 1, 0, -7.105427357601002e-15)"/><path d="M 471.699987 195.899994 A 9.4 9.4 0 0 1 462.299988 205.299994 A 9.4 9.4 0 0 1 452.899988 195.899994 A 9.4 9.4 0 0 1 462.299988 186.499994 A 9.4 9.4 0 0 1 471.699987 195.899994 Z" class="st3" style="fill: rgb(254, 242, 218);" transform="matrix(1, 0, 0, 1, 0, -7.105427357601002e-15)"/><path d="M 521.100012 195.899994 A 9.4 9.4 0 0 1 511.700012 205.299994 A 9.4 9.4 0 0 1 502.300013 195.899994 A 9.4 9.4 0 0 1 511.700012 186.499994 A 9.4 9.4 0 0 1 521.100012 195.899994 Z" class="st3" style="fill: rgb(254, 242, 218);" transform="matrix(1, 0, 0, 1, 0, -7.105427357601002e-15)"/><path d="M 570.4 195.899994 A 9.4 9.4 0 0 1 561 205.299994 A 9.4 9.4 0 0 1 551.6 195.899994 A 9.4 9.4 0 0 1 561 186.499994 A 9.4 9.4 0 0 1 570.4 195.899994 Z" class="st3" style="fill: rgb(254, 242, 218);" transform="matrix(1, 0, 0, 1, 0, -7.105427357601002e-15)"/><path d="M 619.800024 195.899994 A 9.4 9.4 0 0 1 610.400024 205.299994 A 9.4 9.4 0 0 1 601.000025 195.899994 A 9.4 9.4 0 0 1 610.400024 186.499994 A 9.4 9.4 0 0 1 619.800024 195.899994 Z" class="st3" style="fill: rgb(254, 242, 218);" transform="matrix(1, 0, 0, 1, 0, -7.105427357601002e-15)"/><path d="M 669.199987 195.899994 A 9.4 9.4 0 0 1 659.799988 205.299994 A 9.4 9.4 0 0 1 650.399988 195.899994 A 9.4 9.4 0 0 1 659.799988 186.499994 A 9.4 9.4 0 0 1 669.199987 195.899994 Z" class="st3" style="fill: rgb(254, 242, 218);" transform="matrix(1, 0, 0, 1, 0, -7.105427357601002e-15)"/><path d="M 718.600012 195.899994 A 9.4 9.4 0 0 1 709.200012 205.299994 A 9.4 9.4 0 0 1 699.800013 195.899994 A 9.4 9.4 0 0 1 709.200012 186.499994 A 9.4 9.4 0 0 1 718.600012 195.899994 Z" class="st3" style="fill: rgb(254, 242, 218);" transform="matrix(1, 0, 0, 1, 0, -7.105427357601002e-15)"/><path d="M 767.999975 195.899994 A 9.4 9.4 0 0 1 758.599976 205.299994 A 9.4 9.4 0 0 1 749.199976 195.899994 A 9.4 9.4 0 0 1 758.599976 186.499994 A 9.4 9.4 0 0 1 767.999975 195.899994 Z" class="st3" style="fill: rgb(254, 242, 218);" transform="matrix(1, 0, 0, 1, 0, -7.105427357601002e-15)"/><path d="M 817.4 195.899994 A 9.4 9.4 0 0 1 808 205.299994 A 9.4 9.4 0 0 1 798.6 195.899994 A 9.4 9.4 0 0 1 808 186.499994 A 9.4 9.4 0 0 1 817.4 195.899994 Z" class="st3" style="fill: rgb(254, 242, 218);" transform="matrix(1, 0, 0, 1, 0, -7.105427357601002e-15)"/><path d="M 323.500006 276.700012 A 9.4 9.4 0 0 1 314.100006 286.100012 A 9.4 9.4 0 0 1 304.700006 276.700012 A 9.4 9.4 0 0 1 314.100006 267.300013 A 9.4 9.4 0 0 1 323.500006 276.700012 Z" class="st3" style="fill: rgb(254, 242, 218);" transform="matrix(1, 0, 0, 1, 0, -7.105427357601002e-15)"/><path d="M 372.9 276.700012 A 9.4 9.4 0 0 1 363.5 286.100012 A 9.4 9.4 0 0 1 354.1 276.700012 A 9.4 9.4 0 0 1 363.5 267.300013 A 9.4 9.4 0 0 1 372.9 276.700012 Z" class="st3" style="fill: rgb(254, 242, 218);" transform="matrix(1, 0, 0, 1, 0, -7.105427357601002e-15)"/><path d="M 422.299994 276.700012 A 9.4 9.4 0 0 1 412.899994 286.100012 A 9.4 9.4 0 0 1 403.499994 276.700012 A 9.4 9.4 0 0 1 412.899994 267.300013 A 9.4 9.4 0 0 1 422.299994 276.700012 Z" class="st3" style="fill: rgb(254, 242, 218);" transform="matrix(1, 0, 0, 1, 0, -7.105427357601002e-15)"/><path d="M 471.699987 276.700012 A 9.4 9.4 0 0 1 462.299988 286.100012 A 9.4 9.4 0 0 1 452.899988 276.700012 A 9.4 9.4 0 0 1 462.299988 267.300013 A 9.4 9.4 0 0 1 471.699987 276.700012 Z" class="st3" style="fill: rgb(254, 242, 218);" transform="matrix(1, 0, 0, 1, 0, -7.105427357601002e-15)"/><path d="M 521.100012 276.700012 A 9.4 9.4 0 0 1 511.700012 286.100012 A 9.4 9.4 0 0 1 502.300013 276.700012 A 9.4 9.4 0 0 1 511.700012 267.300013 A 9.4 9.4 0 0 1 521.100012 276.700012 Z" class="st3" style="fill: rgb(254, 242, 218);" transform="matrix(1, 0, 0, 1, 0, -7.105427357601002e-15)"/><path d="M 570.4 276.700012 A 9.4 9.4 0 0 1 561 286.100012 A 9.4 9.4 0 0 1 551.6 276.700012 A 9.4 9.4 0 0 1 561 267.300013 A 9.4 9.4 0 0 1 570.4 276.700012 Z" class="st3" style="fill: rgb(254, 242, 218);" transform="matrix(1, 0, 0, 1, 0, -7.105427357601002e-15)"/><path d="M 619.800024 276.700012 A 9.4 9.4 0 0 1 610.400024 286.100012 A 9.4 9.4 0 0 1 601.000025 276.700012 A 9.4 9.4 0 0 1 610.400024 267.300013 A 9.4 9.4 0 0 1 619.800024 276.700012 Z" class="st3" style="fill: rgb(254, 242, 218);" transform="matrix(1, 0, 0, 1, 0, -7.105427357601002e-15)"/><path d="M 669.199987 276.700012 A 9.4 9.4 0 0 1 659.799988 286.100012 A 9.4 9.4 0 0 1 650.399988 276.700012 A 9.4 9.4 0 0 1 659.799988 267.300013 A 9.4 9.4 0 0 1 669.199987 276.700012 Z" class="st3" style="fill: rgb(254, 242, 218);" transform="matrix(1, 0, 0, 1, 0, -7.105427357601002e-15)"/><path d="M 718.600012 276.700012 A 9.4 9.4 0 0 1 709.200012 286.100012 A 9.4 9.4 0 0 1 699.800013 276.700012 A 9.4 9.4 0 0 1 709.200012 267.300013 A 9.4 9.4 0 0 1 718.600012 276.700012 Z" class="st3" style="fill: rgb(254, 242, 218);" transform="matrix(1, 0, 0, 1, 0, -7.105427357601002e-15)"/><path d="M 767.999975 276.700012 A 9.4 9.4 0 0 1 758.599976 286.100012 A 9.4 9.4 0 0 1 749.199976 276.700012 A 9.4 9.4 0 0 1 758.599976 267.300013 A 9.4 9.4 0 0 1 767.999975 276.700012 Z" class="st3" style="fill: rgb(254, 242, 218);" transform="matrix(1, 0, 0, 1, 0, -7.105427357601002e-15)"/><path d="M 817.4 276.700012 A 9.4 9.4 0 0 1 808 286.100012 A 9.4 9.4 0 0 1 798.6 276.700012 A 9.4 9.4 0 0 1 808 267.300013 A 9.4 9.4 0 0 1 817.4 276.700012 Z" class="st3" style="fill: rgb(254, 242, 218);" transform="matrix(1, 0, 0, 1, 306.28895690966556, 520.1133230541491)"/><path d="M 323.500006 357.399994 A 9.4 9.4 0 0 1 314.100006 366.799994 A 9.4 9.4 0 0 1 304.700006 357.399994 A 9.4 9.4 0 0 1 314.100006 347.999994 A 9.4 9.4 0 0 1 323.500006 357.399994 Z" class="st3" style="fill: rgb(254, 242, 218);" transform="matrix(1, 0, 0, 1, 0, -7.105427357601002e-15)"/><path d="M 372.9 357.399994 A 9.4 9.4 0 0 1 363.5 366.799994 A 9.4 9.4 0 0 1 354.1 357.399994 A 9.4 9.4 0 0 1 363.5 347.999994 A 9.4 9.4 0 0 1 372.9 357.399994 Z" class="st3" style="fill: rgb(254, 242, 218);" transform="matrix(1, 0, 0, 1, 0, -7.105427357601002e-15)"/><path d="M 422.299994 357.399994 A 9.4 9.4 0 0 1 412.899994 366.799994 A 9.4 9.4 0 0 1 403.499994 357.399994 A 9.4 9.4 0 0 1 412.899994 347.999994 A 9.4 9.4 0 0 1 422.299994 357.399994 Z" class="st3" style="fill: rgb(254, 242, 218);" transform="matrix(1, 0, 0, 1, 0, -7.105427357601002e-15)"/><path d="M 471.699987 357.399994 A 9.4 9.4 0 0 1 462.299988 366.799994 A 9.4 9.4 0 0 1 452.899988 357.399994 A 9.4 9.4 0 0 1 462.299988 347.999994 A 9.4 9.4 0 0 1 471.699987 357.399994 Z" class="st3" style="fill: rgb(254, 242, 218);" transform="matrix(1, 0, 0, 1, 0, -7.105427357601002e-15)"/><path d="M 521.100012 357.399994 A 9.4 9.4 0 0 1 511.700012 366.799994 A 9.4 9.4 0 0 1 502.300013 357.399994 A 9.4 9.4 0 0 1 511.700012 347.999994 A 9.4 9.4 0 0 1 521.100012 357.399994 Z" class="st3" style="fill: rgb(254, 242, 218);" transform="matrix(1, 0, 0, 1, 0, -7.105427357601002e-15)"/><path d="M 570.4 357.399994 A 9.4 9.4 0 0 1 561 366.799994 A 9.4 9.4 0 0 1 551.6 357.399994 A 9.4 9.4 0 0 1 561 347.999994 A 9.4 9.4 0 0 1 570.4 357.399994 Z" class="st3" style="fill: rgb(254, 242, 218);" transform="matrix(1, 0, 0, 1, 0, -7.105427357601002e-15)"/><path d="M 619.800024 357.399994 A 9.4 9.4 0 0 1 610.400024 366.799994 A 9.4 9.4 0 0 1 601.000025 357.399994 A 9.4 9.4 0 0 1 610.400024 347.999994 A 9.4 9.4 0 0 1 619.800024 357.399994 Z" class="st3" style="fill: rgb(254, 242, 218);" transform="matrix(1, 0, 0, 1, 0, -7.105427357601002e-15)"/><path d="M 669.199987 357.399994 A 9.4 9.4 0 0 1 659.799988 366.799994 A 9.4 9.4 0 0 1 650.399988 357.399994 A 9.4 9.4 0 0 1 659.799988 347.999994 A 9.4 9.4 0 0 1 669.199987 357.399994 Z" class="st3" style="fill: rgb(254, 242, 218);" transform="matrix(1, 0, 0, 1, 0, -7.105427357601002e-15)"/><path d="M 718.600012 357.399994 A 9.4 9.4 0 0 1 709.200012 366.799994 A 9.4 9.4 0 0 1 699.800013 357.399994 A 9.4 9.4 0 0 1 709.200012 347.999994 A 9.4 9.4 0 0 1 718.600012 357.399994 Z" class="st3" style="fill: rgb(254, 242, 218);" transform="matrix(1, 0, 0, 1, 0, -7.105427357601002e-15)"/><path d="M 767.999975 357.399994 A 9.4 9.4 0 0 1 758.599976 366.799994 A 9.4 9.4 0 0 1 749.199976 357.399994 A 9.4 9.4 0 0 1 758.599976 347.999994 A 9.4 9.4 0 0 1 767.999975 357.399994 Z" class="st3" style="fill: rgb(254, 242, 218);" transform="matrix(1, 0, 0, 1, 0, -7.105427357601002e-15)"/><path d="M 817.4 357.399994 A 9.4 9.4 0 0 1 808 366.799994 A 9.4 9.4 0 0 1 798.6 357.399994 A 9.4 9.4 0 0 1 808 347.999994 A 9.4 9.4 0 0 1 817.4 357.399994 Z" class="st3" style="fill: rgb(254, 242, 218);" transform="matrix(1, 0, 0, 1, 0, -7.105427357601002e-15)"/><path d="M 323.500006 435 A 9.4 9.4 0 0 1 314.100006 444.4 A 9.4 9.4 0 0 1 304.700006 435 A 9.4 9.4 0 0 1 314.100006 425.6 A 9.4 9.4 0 0 1 323.500006 435 Z" class="st3" style="fill: rgb(254, 242, 218);" transform="matrix(1, 0, 0, 1, 0, -7.105427357601002e-15)"/><path d="M 372.9 435 A 9.4 9.4 0 0 1 363.5 444.4 A 9.4 9.4 0 0 1 354.1 435 A 9.4 9.4 0 0 1 363.5 425.6 A 9.4 9.4 0 0 1 372.9 435 Z" class="st3" style="fill: rgb(254, 242, 218);" transform="matrix(1, 0, 0, 1, 0, -7.105427357601002e-15)"/><path d="M 422.299994 435 A 9.4 9.4 0 0 1 412.899994 444.4 A 9.4 9.4 0 0 1 403.499994 435 A 9.4 9.4 0 0 1 412.899994 425.6 A 9.4 9.4 0 0 1 422.299994 435 Z" class="st3" style="fill: rgb(254, 242, 218);" transform="matrix(1, 0, 0, 1, 0, -7.105427357601002e-15)"/><path d="M 471.699987 435 A 9.4 9.4 0 0 1 462.299988 444.4 A 9.4 9.4 0 0 1 452.899988 435 A 9.4 9.4 0 0 1 462.299988 425.6 A 9.4 9.4 0 0 1 471.699987 435 Z" class="st3" style="fill: rgb(254, 242, 218);" transform="matrix(1, 0, 0, 1, 0, -7.105427357601002e-15)"/><path d="M 521.100012 435 A 9.4 9.4 0 0 1 511.700012 444.4 A 9.4 9.4 0 0 1 502.300013 435 A 9.4 9.4 0 0 1 511.700012 425.6 A 9.4 9.4 0 0 1 521.100012 435 Z" class="st3" style="fill: rgb(254, 242, 218);" transform="matrix(1, 0, 0, 1, 0, -7.105427357601002e-15)"/><path d="M 570.4 435 A 9.4 9.4 0 0 1 561 444.4 A 9.4 9.4 0 0 1 551.6 435 A 9.4 9.4 0 0 1 561 425.6 A 9.4 9.4 0 0 1 570.4 435 Z" class="st3" style="fill: rgb(254, 242, 218);" transform="matrix(1, 0, 0, 1, 0, -7.105427357601002e-15)"/><path d="M 619.800024 435 A 9.4 9.4 0 0 1 610.400024 444.4 A 9.4 9.4 0 0 1 601.000025 435 A 9.4 9.4 0 0 1 610.400024 425.6 A 9.4 9.4 0 0 1 619.800024 435 Z" class="st3" style="fill: rgb(254, 242, 218);" transform="matrix(1, 0, 0, 1, 0, -7.105427357601002e-15)"/><path d="M 669.199987 435 A 9.4 9.4 0 0 1 659.799988 444.4 A 9.4 9.4 0 0 1 650.399988 435 A 9.4 9.4 0 0 1 659.799988 425.6 A 9.4 9.4 0 0 1 669.199987 435 Z" class="st3" style="fill: rgb(254, 242, 218);" transform="matrix(1, 0, 0, 1, 0, -7.105427357601002e-15)"/><path d="M 718.600012 435 A 9.4 9.4 0 0 1 709.200012 444.4 A 9.4 9.4 0 0 1 699.800013 435 A 9.4 9.4 0 0 1 709.200012 425.6 A 9.4 9.4 0 0 1 718.600012 435 Z" class="st3" style="fill: rgb(254, 242, 218);" transform="matrix(1, 0, 0, 1, 0, -7.105427357601002e-15)"/><path d="M 767.999975 435 A 9.4 9.4 0 0 1 758.599976 444.4 A 9.4 9.4 0 0 1 749.199976 435 A 9.4 9.4 0 0 1 758.599976 425.6 A 9.4 9.4 0 0 1 767.999975 435 Z" class="st3" style="fill: rgb(254, 242, 218);" transform="matrix(1, 0, 0, 1, 0, -7.105427357601002e-15)"/><path d="M 817.4 435 A 9.4 9.4 0 0 1 808 444.4 A 9.4 9.4 0 0 1 798.6 435 A 9.4 9.4 0 0 1 808 425.6 A 9.4 9.4 0 0 1 817.4 435 Z" class="st3" style="fill: rgb(254, 242, 218);" transform="matrix(1, 0, 0, 1, 0, -7.105427357601002e-15)"/><path d="M 323.500006 512.599976 A 9.4 9.4 0 0 1 314.100006 521.999975 A 9.4 9.4 0 0 1 304.700006 512.599976 A 9.4 9.4 0 0 1 314.100006 503.199976 A 9.4 9.4 0 0 1 323.500006 512.599976 Z" class="st3" style="fill: rgb(254, 242, 218);" transform="matrix(1, 0, 0, 1, 0, -7.105427357601002e-15)"/><path d="M 372.9 512.599976 A 9.4 9.4 0 0 1 363.5 521.999975 A 9.4 9.4 0 0 1 354.1 512.599976 A 9.4 9.4 0 0 1 363.5 503.199976 A 9.4 9.4 0 0 1 372.9 512.599976 Z" class="st3" style="fill: rgb(254, 242, 218);" transform="matrix(1, 0, 0, 1, 0, -7.105427357601002e-15)"/><path d="M 422.299994 512.599976 A 9.4 9.4 0 0 1 412.899994 521.999975 A 9.4 9.4 0 0 1 403.499994 512.599976 A 9.4 9.4 0 0 1 412.899994 503.199976 A 9.4 9.4 0 0 1 422.299994 512.599976 Z" class="st3" style="fill: rgb(254, 242, 218);" transform="matrix(1, 0, 0, 1, 0, -7.105427357601002e-15)"/><path d="M 471.699987 512.599976 A 9.4 9.4 0 0 1 462.299988 521.999975 A 9.4 9.4 0 0 1 452.899988 512.599976 A 9.4 9.4 0 0 1 462.299988 503.199976 A 9.4 9.4 0 0 1 471.699987 512.599976 Z" class="st3" style="fill: rgb(254, 242, 218);" transform="matrix(1, 0, 0, 1, 0, -7.105427357601002e-15)"/><path d="M 521.100012 512.599976 A 9.4 9.4 0 0 1 511.700012 521.999975 A 9.4 9.4 0 0 1 502.300013 512.599976 A 9.4 9.4 0 0 1 511.700012 503.199976 A 9.4 9.4 0 0 1 521.100012 512.599976 Z" class="st3" style="fill: rgb(254, 242, 218);" transform="matrix(1, 0, 0, 1, 0, -7.105427357601002e-15)"/><path d="M 570.4 512.599976 A 9.4 9.4 0 0 1 561 521.999975 A 9.4 9.4 0 0 1 551.6 512.599976 A 9.4 9.4 0 0 1 561 503.199976 A 9.4 9.4 0 0 1 570.4 512.599976 Z" class="st3" style="fill: rgb(254, 242, 218);" transform="matrix(1, 0, 0, 1, 0, -7.105427357601002e-15)"/><path d="M 619.800024 512.599976 A 9.4 9.4 0 0 1 610.400024 521.999975 A 9.4 9.4 0 0 1 601.000025 512.599976 A 9.4 9.4 0 0 1 610.400024 503.199976 A 9.4 9.4 0 0 1 619.800024 512.599976 Z" class="st3" style="fill: rgb(254, 242, 218);" transform="matrix(1, 0, 0, 1, 0, -7.105427357601002e-15)"/><path d="M 669.199987 512.599976 A 9.4 9.4 0 0 1 659.799988 521.999975 A 9.4 9.4 0 0 1 650.399988 512.599976 A 9.4 9.4 0 0 1 659.799988 503.199976 A 9.4 9.4 0 0 1 669.199987 512.599976 Z" class="st3" style="fill: rgb(254, 242, 218);" transform="matrix(1, 0, 0, 1, 0, -7.105427357601002e-15)"/><path d="M 718.600012 512.599976 A 9.4 9.4 0 0 1 709.200012 521.999975 A 9.4 9.4 0 0 1 699.800013 512.599976 A 9.4 9.4 0 0 1 709.200012 503.199976 A 9.4 9.4 0 0 1 718.600012 512.599976 Z" class="st3" style="fill: rgb(254, 242, 218);" transform="matrix(1, 0, 0, 1, 0, -7.105427357601002e-15)"/><path d="M 767.999975 512.599976 A 9.4 9.4 0 0 1 758.599976 521.999975 A 9.4 9.4 0 0 1 749.199976 512.599976 A 9.4 9.4 0 0 1 758.599976 503.199976 A 9.4 9.4 0 0 1 767.999975 512.599976 Z" class="st3" style="fill: rgb(254, 242, 218);" transform="matrix(1, 0, 0, 1, 0, -7.105427357601002e-15)"/><path d="M 817.4 512.599976 A 9.4 9.4 0 0 1 808 521.999975 A 9.4 9.4 0 0 1 798.6 512.599976 A 9.4 9.4 0 0 1 808 503.199976 A 9.4 9.4 0 0 1 817.4 512.599976 Z" class="st3" style="fill: rgb(254, 242, 218);" transform="matrix(1, 0, 0, 1, 0, -7.105427357601002e-15)"/><path d="M 323.500006 590.200012 A 9.4 9.4 0 0 1 314.100006 599.600012 A 9.4 9.4 0 0 1 304.700006 590.200012 A 9.4 9.4 0 0 1 314.100006 580.800013 A 9.4 9.4 0 0 1 323.500006 590.200012 Z" class="st3" style="fill: rgb(254, 242, 218);" transform="matrix(1, 0, 0, 1, 0, -7.105427357601002e-15)"/><path d="M 372.9 590.200012 A 9.4 9.4 0 0 1 363.5 599.600012 A 9.4 9.4 0 0 1 354.1 590.200012 A 9.4 9.4 0 0 1 363.5 580.800013 A 9.4 9.4 0 0 1 372.9 590.200012 Z" class="st3" style="fill: rgb(254, 242, 218);" transform="matrix(1, 0, 0, 1, 0, -7.105427357601002e-15)"/><path d="M 422.299994 590.200012 A 9.4 9.4 0 0 1 412.899994 599.600012 A 9.4 9.4 0 0 1 403.499994 590.200012 A 9.4 9.4 0 0 1 412.899994 580.800013 A 9.4 9.4 0 0 1 422.299994 590.200012 Z" class="st3" style="fill: rgb(254, 242, 218);" transform="matrix(1, 0, 0, 1, 0, -7.105427357601002e-15)"/><path d="M 471.699987 590.200012 A 9.4 9.4 0 0 1 462.299988 599.600012 A 9.4 9.4 0 0 1 452.899988 590.200012 A 9.4 9.4 0 0 1 462.299988 580.800013 A 9.4 9.4 0 0 1 471.699987 590.200012 Z" class="st3" style="fill: rgb(254, 242, 218);" transform="matrix(1, 0, 0, 1, 0, -7.105427357601002e-15)"/><path d="M 521.100012 590.200012 A 9.4 9.4 0 0 1 511.700012 599.600012 A 9.4 9.4 0 0 1 502.300013 590.200012 A 9.4 9.4 0 0 1 511.700012 580.800013 A 9.4 9.4 0 0 1 521.100012 590.200012 Z" class="st3" style="fill: rgb(254, 242, 218);" transform="matrix(1, 0, 0, 1, 0, -7.105427357601002e-15)"/><path d="M 570.4 590.200012 A 9.4 9.4 0 0 1 561 599.600012 A 9.4 9.4 0 0 1 551.6 590.200012 A 9.4 9.4 0 0 1 561 580.800013 A 9.4 9.4 0 0 1 570.4 590.200012 Z" class="st3" style="fill: rgb(254, 242, 218);" transform="matrix(1, 0, 0, 1, 0, -7.105427357601002e-15)"/><path d="M 619.800024 590.200012 A 9.4 9.4 0 0 1 610.400024 599.600012 A 9.4 9.4 0 0 1 601.000025 590.200012 A 9.4 9.4 0 0 1 610.400024 580.800013 A 9.4 9.4 0 0 1 619.800024 590.200012 Z" class="st3" style="fill: rgb(254, 242, 218);" transform="matrix(1, 0, 0, 1, 0, -7.105427357601002e-15)"/><path d="M 669.199987 590.200012 A 9.4 9.4 0 0 1 659.799988 599.600012 A 9.4 9.4 0 0 1 650.399988 590.200012 A 9.4 9.4 0 0 1 659.799988 580.800013 A 9.4 9.4 0 0 1 669.199987 590.200012 Z" class="st3" style="fill: rgb(254, 242, 218);" transform="matrix(1, 0, 0, 1, 0, -7.105427357601002e-15)"/><path d="M 718.600012 590.200012 A 9.4 9.4 0 0 1 709.200012 599.600012 A 9.4 9.4 0 0 1 699.800013 590.200012 A 9.4 9.4 0 0 1 709.200012 580.800013 A 9.4 9.4 0 0 1 718.600012 590.200012 Z" class="st3" style="fill: rgb(254, 242, 218);" transform="matrix(1, 0, 0, 1, 0, -7.105427357601002e-15)"/><path d="M 767.999975 590.200012 A 9.4 9.4 0 0 1 758.599976 599.600012 A 9.4 9.4 0 0 1 749.199976 590.200012 A 9.4 9.4 0 0 1 758.599976 580.800013 A 9.4 9.4 0 0 1 767.999975 590.200012 Z" class="st3" style="fill: rgb(254, 242, 218);" transform="matrix(1, 0, 0, 1, 0, -7.105427357601002e-15)"/><path d="M 817.4 590.200012 A 9.4 9.4 0 0 1 808 599.600012 A 9.4 9.4 0 0 1 798.6 590.200012 A 9.4 9.4 0 0 1 808 580.800013 A 9.4 9.4 0 0 1 817.4 590.200012 Z" class="st3" style="fill: rgb(254, 242, 218);" transform="matrix(1, 0, 0, 1, 0, -7.105427357601002e-15)"/><path class="st3" d="M52.5,1358.7l286.6,166c5.1-4,9.9-8.3,14.6-12.9L56.4,1339.7C54.8,1346,53.5,1352.3,52.5,1358.7z" style="fill: rgb(254, 242, 218);" transform="matrix(1, 0, 0, 1, 0, -7.105427357601002e-15)"/><path class="st3" d="M62.4,1321.1l304.3,176.2c3.9-4.8,7.5-9.8,10.9-15L70,1304.2C67.2,1309.7,64.6,1315.4,62.4,1321.1z" style="fill: rgb(254, 242, 218);" transform="matrix(1, 0, 0, 1, 0, -7.105427357601002e-15)"/><path class="st3" d="M51.3,1401.4l251.3,145.5c6.6-3,13-6.4,19.2-10.2l-271.2-157C50.4,1386.9,50.7,1394.2,51.3,1401.4z" style="fill: rgb(254, 242, 218);" transform="matrix(1, 0, 0, 1, 0, -7.105427357601002e-15)"/><path class="st3" d="M204.4,1208.6c-9.1,1.2-18,3.2-26.8,5.8l224.2,129.9c-2.1-8.9-4.9-17.6-8.3-26.1L204.4,1208.6z" style="fill: rgb(254, 242, 218);" transform="matrix(1, 0, 0, 1, 0, -7.105427357601002e-15)"/><path class="st3" d="M63.6,1451.8l189.2,109.6c9.1-1.2,18-3.2,26.8-5.8L55.3,1425.7C57.4,1434.6,60.2,1443.3,63.6,1451.8z" style="fill: rgb(254, 242, 218);" transform="matrix(1, 0, 0, 1, 0, -7.105427357601002e-15)"/><path class="st3" d="M79.6,1287.7l307.7,178.2c2.8-5.6,5.4-11.2,7.6-16.9L90.5,1272.7C86.6,1277.4,83,1282.4,79.6,1287.7z" style="fill: rgb(254, 242, 218);" transform="matrix(1, 0, 0, 1, 0, -7.105427357601002e-15)"/><path class="st3" d="M317.8,1230.9c-24.5-14.2-51.1-21.9-77.6-23.6l136.7,79.2C362.2,1264.4,342.4,1245.2,317.8,1230.9z" style="fill: rgb(254, 242, 218);" transform="matrix(1, 0, 0, 1, 0, -7.105427357601002e-15)"/><path class="st3" d="M139.4,1539c24.5,14.2,51.1,21.9,77.6,23.6l-136.7-79.2C95,1505.6,114.9,1524.8,139.4,1539z" style="fill: rgb(254, 242, 218);" transform="matrix(1, 0, 0, 1, 0, -7.105427357601002e-15)"/><path class="st3" d="M103.6,1258.2l297.2,172.1c1.7-6.3,3-12.7,3.9-19l-286.6-166C113.1,1249.3,108.2,1253.7,103.6,1258.2z" style="fill: rgb(254, 242, 218);" transform="matrix(1, 0, 0, 1, 0, -7.105427357601002e-15)"/><path class="st3" d="M154.6,1223.1c-6.6,3-13,6.4-19.2,10.2l271.2,157c0.2-7.3,0-14.5-0.7-21.7L154.6,1223.1z" style="fill: rgb(254, 242, 218);" transform="matrix(1, 0, 0, 1, 0, -7.105427357601002e-15)"/><g transform="matrix(1, 0, 0, 1, 0, -7.105427357601002e-15)">
			<path d="M 2857.699951 290 A 8 8 0 0 1 2849.699951 298 A 8 8 0 0 1 2841.699951 290 A 8 8 0 0 1 2849.699951 282 A 8 8 0 0 1 2857.699951 290 Z" class="st4" style="fill: rgb(106, 191, 175);"/>
			<path d="M 2857.699951 327.799988 A 8 8 0 0 1 2849.699951 335.799988 A 8 8 0 0 1 2841.699951 327.799988 A 8 8 0 0 1 2849.699951 319.799988 A 8 8 0 0 1 2857.699951 327.799988 Z" class="st4" style="fill: rgb(106, 191, 175);"/>
			<path d="M 2857.699951 252.100006 A 8 8 0 0 1 2849.699951 260.100006 A 8 8 0 0 1 2841.699951 252.100006 A 8 8 0 0 1 2849.699951 244.100006 A 8 8 0 0 1 2857.699951 252.100006 Z" class="st4" style="fill: rgb(106, 191, 175);"/>
			<path d="M 2857.699951 403.5 A 8 8 0 0 1 2849.699951 411.5 A 8 8 0 0 1 2841.699951 403.5 A 8 8 0 0 1 2849.699951 395.5 A 8 8 0 0 1 2857.699951 403.5 Z" class="st4" style="fill: rgb(106, 191, 175);"/>
			<path d="M 2857.699951 365.700012 A 8 8 0 0 1 2849.699951 373.700012 A 8 8 0 0 1 2841.699951 365.700012 A 8 8 0 0 1 2849.699951 357.700012 A 8 8 0 0 1 2857.699951 365.700012 Z" class="st4" style="fill: rgb(106, 191, 175);"/>
			<path d="M 2983.699951 252.100006 A 8 8 0 0 1 2975.699951 260.100006 A 8 8 0 0 1 2967.699951 252.100006 A 8 8 0 0 1 2975.699951 244.100006 A 8 8 0 0 1 2983.699951 252.100006 Z" class="st4" style="fill: rgb(106, 191, 175);"/>
			<path d="M 2857.699951 220.199997 A 8 8 0 0 1 2849.699951 228.199997 A 8 8 0 0 1 2841.699951 220.199997 A 8 8 0 0 1 2849.699951 212.199997 A 8 8 0 0 1 2857.699951 220.199997 Z" class="st4" style="fill: rgb(106, 191, 175);"/>
			<path d="M 2857.699951 441.399994 A 8 8 0 0 1 2849.699951 449.399994 A 8 8 0 0 1 2841.699951 441.399994 A 8 8 0 0 1 2849.699951 433.399994 A 8 8 0 0 1 2857.699951 441.399994 Z" class="st4" style="fill: rgb(106, 191, 175);"/>
			<path d="M 2899.699951 327.799988 A 8 8 0 0 1 2891.699951 335.799988 A 8 8 0 0 1 2883.699951 327.799988 A 8 8 0 0 1 2891.699951 319.799988 A 8 8 0 0 1 2899.699951 327.799988 Z" class="st4" style="fill: rgb(106, 191, 175);"/>
			<path d="M 2983.699951 365.700012 A 8 8 0 0 1 2975.699951 373.700012 A 8 8 0 0 1 2967.699951 365.700012 A 8 8 0 0 1 2975.699951 357.700012 A 8 8 0 0 1 2983.699951 365.700012 Z" class="st4" style="fill: rgb(106, 191, 175);"/>
			<path d="M 2983.699951 327.799988 A 8 8 0 0 1 2975.699951 335.799988 A 8 8 0 0 1 2967.699951 327.799988 A 8 8 0 0 1 2975.699951 319.799988 A 8 8 0 0 1 2983.699951 327.799988 Z" class="st4" style="fill: rgb(106, 191, 175);"/>
			<path d="M 2857.699951 723 A 8 8 0 0 1 2849.699951 731 A 8 8 0 0 1 2841.699951 723 A 8 8 0 0 1 2849.699951 715 A 8 8 0 0 1 2857.699951 723 Z" class="st4" style="fill: rgb(106, 191, 175);"/>
			<path d="M 2857.699951 688.700012 A 8 8 0 0 1 2849.699951 696.700012 A 8 8 0 0 1 2841.699951 688.700012 A 8 8 0 0 1 2849.699951 680.700012 A 8 8 0 0 1 2857.699951 688.700012 Z" class="st4" style="fill: rgb(106, 191, 175);"/>
			<path d="M 2899.699951 220.199997 A 8 8 0 0 1 2891.699951 228.199997 A 8 8 0 0 1 2883.699951 220.199997 A 8 8 0 0 1 2891.699951 212.199997 A 8 8 0 0 1 2899.699951 220.199997 Z" class="st4" style="fill: rgb(106, 191, 175);"/>
			<path d="M 2857.699951 479.200012 A 8 8 0 0 1 2849.699951 487.200012 A 8 8 0 0 1 2841.699951 479.200012 A 8 8 0 0 1 2849.699951 471.200012 A 8 8 0 0 1 2857.699951 479.200012 Z" class="st4" style="fill: rgb(106, 191, 175);"/>
			<path d="M 2899.699951 252.100006 A 8 8 0 0 1 2891.699951 260.100006 A 8 8 0 0 1 2883.699951 252.100006 A 8 8 0 0 1 2891.699951 244.100006 A 8 8 0 0 1 2899.699951 252.100006 Z" class="st4" style="fill: rgb(106, 191, 175);"/>
			<path d="M 2857.699951 654.400024 A 8 8 0 0 1 2849.699951 662.400024 A 8 8 0 0 1 2841.699951 654.400024 A 8 8 0 0 1 2849.699951 646.400024 A 8 8 0 0 1 2857.699951 654.400024 Z" class="st4" style="fill: rgb(106, 191, 175);"/>
			<path d="M 2857.699951 517.099976 A 8 8 0 0 1 2849.699951 525.099976 A 8 8 0 0 1 2841.699951 517.099976 A 8 8 0 0 1 2849.699951 509.099976 A 8 8 0 0 1 2857.699951 517.099976 Z" class="st4" style="fill: rgb(106, 191, 175);"/>
			<path d="M 2857.699951 551.400024 A 8 8 0 0 1 2849.699951 559.400024 A 8 8 0 0 1 2841.699951 551.400024 A 8 8 0 0 1 2849.699951 543.400024 A 8 8 0 0 1 2857.699951 551.400024 Z" class="st4" style="fill: rgb(106, 191, 175);"/>
			<path d="M 2857.699951 620.099976 A 8 8 0 0 1 2849.699951 628.099976 A 8 8 0 0 1 2841.699951 620.099976 A 8 8 0 0 1 2849.699951 612.099976 A 8 8 0 0 1 2857.699951 620.099976 Z" class="st4" style="fill: rgb(106, 191, 175);"/>
			<path d="M 2857.699951 585.700012 A 8 8 0 0 1 2849.699951 593.700012 A 8 8 0 0 1 2841.699951 585.700012 A 8 8 0 0 1 2849.699951 577.700012 A 8 8 0 0 1 2857.699951 585.700012 Z" class="st4" style="fill: rgb(106, 191, 175);"/>
			<path d="M 2899.699951 290 A 8 8 0 0 1 2891.699951 298 A 8 8 0 0 1 2883.699951 290 A 8 8 0 0 1 2891.699951 282 A 8 8 0 0 1 2899.699951 290 Z" class="st4" style="fill: rgb(106, 191, 175);"/>
			<path d="M 2983.699951 403.5 A 8 8 0 0 1 2975.699951 411.5 A 8 8 0 0 1 2967.699951 403.5 A 8 8 0 0 1 2975.699951 395.5 A 8 8 0 0 1 2983.699951 403.5 Z" class="st4" style="fill: rgb(106, 191, 175);"/>
			<path d="M 2983.699951 551.400024 A 8 8 0 0 1 2975.699951 559.400024 A 8 8 0 0 1 2967.699951 551.400024 A 8 8 0 0 1 2975.699951 543.400024 A 8 8 0 0 1 2983.699951 551.400024 Z" class="st4" style="fill: rgb(106, 191, 175);"/>
			<path d="M 2983.699951 517.099976 A 8 8 0 0 1 2975.699951 525.099976 A 8 8 0 0 1 2967.699951 517.099976 A 8 8 0 0 1 2975.699951 509.099976 A 8 8 0 0 1 2983.699951 517.099976 Z" class="st4" style="fill: rgb(106, 191, 175);"/>
			<path d="M 2983.699951 479.200012 A 8 8 0 0 1 2975.699951 487.200012 A 8 8 0 0 1 2967.699951 479.200012 A 8 8 0 0 1 2975.699951 471.200012 A 8 8 0 0 1 2983.699951 479.200012 Z" class="st4" style="fill: rgb(106, 191, 175);"/>
			<path d="M 2983.699951 585.700012 A 8 8 0 0 1 2975.699951 593.700012 A 8 8 0 0 1 2967.699951 585.700012 A 8 8 0 0 1 2975.699951 577.700012 A 8 8 0 0 1 2983.699951 585.700012 Z" class="st4" style="fill: rgb(106, 191, 175);"/>
			<path d="M 2983.699951 441.399994 A 8 8 0 0 1 2975.699951 449.399994 A 8 8 0 0 1 2967.699951 441.399994 A 8 8 0 0 1 2975.699951 433.399994 A 8 8 0 0 1 2983.699951 441.399994 Z" class="st4" style="fill: rgb(106, 191, 175);"/>
			<path d="M 2983.699951 620.099976 A 8 8 0 0 1 2975.699951 628.099976 A 8 8 0 0 1 2967.699951 620.099976 A 8 8 0 0 1 2975.699951 612.099976 A 8 8 0 0 1 2983.699951 620.099976 Z" class="st4" style="fill: rgb(106, 191, 175);"/>
			<path d="M 2983.699951 723 A 8 8 0 0 1 2975.699951 731 A 8 8 0 0 1 2967.699951 723 A 8 8 0 0 1 2975.699951 715 A 8 8 0 0 1 2983.699951 723 Z" class="st4" style="fill: rgb(106, 191, 175);"/>
			<path d="M 2983.699951 654.400024 A 8 8 0 0 1 2975.699951 662.400024 A 8 8 0 0 1 2967.699951 654.400024 A 8 8 0 0 1 2975.699951 646.400024 A 8 8 0 0 1 2983.699951 654.400024 Z" class="st4" style="fill: rgb(106, 191, 175);"/>
			<path d="M 2983.699951 688.700012 A 8 8 0 0 1 2975.699951 696.700012 A 8 8 0 0 1 2967.699951 688.700012 A 8 8 0 0 1 2975.699951 680.700012 A 8 8 0 0 1 2983.699951 688.700012 Z" class="st4" style="fill: rgb(106, 191, 175);"/>
			<path d="M 2857.699951 757.400024 A 8 8 0 0 1 2849.699951 765.400024 A 8 8 0 0 1 2841.699951 757.400024 A 8 8 0 0 1 2849.699951 749.400024 A 8 8 0 0 1 2857.699951 757.400024 Z" class="st4" style="fill: rgb(106, 191, 175);"/>
			<path d="M 2941.699951 757.400024 A 8 8 0 0 1 2933.699951 765.400024 A 8 8 0 0 1 2925.699951 757.400024 A 8 8 0 0 1 2933.699951 749.400024 A 8 8 0 0 1 2941.699951 757.400024 Z" class="st4" style="fill: rgb(106, 191, 175);"/>
			<path d="M 2941.699951 723 A 8 8 0 0 1 2933.699951 731 A 8 8 0 0 1 2925.699951 723 A 8 8 0 0 1 2933.699951 715 A 8 8 0 0 1 2941.699951 723 Z" class="st4" style="fill: rgb(106, 191, 175);"/>
			<path d="M 2941.699951 688.700012 A 8 8 0 0 1 2933.699951 696.700012 A 8 8 0 0 1 2925.699951 688.700012 A 8 8 0 0 1 2933.699951 680.700012 A 8 8 0 0 1 2941.699951 688.700012 Z" class="st4" style="fill: rgb(106, 191, 175);"/>
			<path d="M 2899.699951 365.700012 A 8 8 0 0 1 2891.699951 373.700012 A 8 8 0 0 1 2883.699951 365.700012 A 8 8 0 0 1 2891.699951 357.700012 A 8 8 0 0 1 2899.699951 365.700012 Z" class="st4" style="fill: rgb(106, 191, 175);"/>
			<path d="M 2899.699951 723 A 8 8 0 0 1 2891.699951 731 A 8 8 0 0 1 2883.699951 723 A 8 8 0 0 1 2891.699951 715 A 8 8 0 0 1 2899.699951 723 Z" class="st4" style="fill: rgb(106, 191, 175);"/>
			<path d="M 2899.699951 654.400024 A 8 8 0 0 1 2891.699951 662.400024 A 8 8 0 0 1 2883.699951 654.400024 A 8 8 0 0 1 2891.699951 646.400024 A 8 8 0 0 1 2899.699951 654.400024 Z" class="st4" style="fill: rgb(106, 191, 175);"/>
			<path d="M 2899.699951 757.400024 A 8 8 0 0 1 2891.699951 765.400024 A 8 8 0 0 1 2883.699951 757.400024 A 8 8 0 0 1 2891.699951 749.400024 A 8 8 0 0 1 2899.699951 757.400024 Z" class="st4" style="fill: rgb(106, 191, 175);"/>
			<path d="M 2899.699951 688.700012 A 8 8 0 0 1 2891.699951 696.700012 A 8 8 0 0 1 2883.699951 688.700012 A 8 8 0 0 1 2891.699951 680.700012 A 8 8 0 0 1 2899.699951 688.700012 Z" class="st4" style="fill: rgb(106, 191, 175);"/>
			<path d="M 2899.699951 585.700012 A 8 8 0 0 1 2891.699951 593.700012 A 8 8 0 0 1 2883.699951 585.700012 A 8 8 0 0 1 2891.699951 577.700012 A 8 8 0 0 1 2899.699951 585.700012 Z" class="st4" style="fill: rgb(106, 191, 175);"/>
			<path d="M 2899.699951 620.099976 A 8 8 0 0 1 2891.699951 628.099976 A 8 8 0 0 1 2883.699951 620.099976 A 8 8 0 0 1 2891.699951 612.099976 A 8 8 0 0 1 2899.699951 620.099976 Z" class="st4" style="fill: rgb(106, 191, 175);"/>
			<path d="M 2899.699951 403.5 A 8 8 0 0 1 2891.699951 411.5 A 8 8 0 0 1 2883.699951 403.5 A 8 8 0 0 1 2891.699951 395.5 A 8 8 0 0 1 2899.699951 403.5 Z" class="st4" style="fill: rgb(106, 191, 175);"/>
			<path d="M 2899.699951 551.400024 A 8 8 0 0 1 2891.699951 559.400024 A 8 8 0 0 1 2883.699951 551.400024 A 8 8 0 0 1 2891.699951 543.400024 A 8 8 0 0 1 2899.699951 551.400024 Z" class="st4" style="fill: rgb(106, 191, 175);"/>
			<path d="M 2899.699951 441.399994 A 8 8 0 0 1 2891.699951 449.399994 A 8 8 0 0 1 2883.699951 441.399994 A 8 8 0 0 1 2891.699951 433.399994 A 8 8 0 0 1 2899.699951 441.399994 Z" class="st4" style="fill: rgb(106, 191, 175);"/>
			<path d="M 2899.699951 479.200012 A 8 8 0 0 1 2891.699951 487.200012 A 8 8 0 0 1 2883.699951 479.200012 A 8 8 0 0 1 2891.699951 471.200012 A 8 8 0 0 1 2899.699951 479.200012 Z" class="st4" style="fill: rgb(106, 191, 175);"/>
			<path d="M 2899.699951 517.099976 A 8 8 0 0 1 2891.699951 525.099976 A 8 8 0 0 1 2883.699951 517.099976 A 8 8 0 0 1 2891.699951 509.099976 A 8 8 0 0 1 2899.699951 517.099976 Z" class="st4" style="fill: rgb(106, 191, 175);"/>
			<path d="M 2941.699951 403.5 A 8 8 0 0 1 2933.699951 411.5 A 8 8 0 0 1 2925.699951 403.5 A 8 8 0 0 1 2933.699951 395.5 A 8 8 0 0 1 2941.699951 403.5 Z" class="st4" style="fill: rgb(106, 191, 175);"/>
			<path d="M 2941.699951 517.099976 A 8 8 0 0 1 2933.699951 525.099976 A 8 8 0 0 1 2925.699951 517.099976 A 8 8 0 0 1 2933.699951 509.099976 A 8 8 0 0 1 2941.699951 517.099976 Z" class="st4" style="fill: rgb(106, 191, 175);"/>
			<path d="M 2941.699951 551.400024 A 8 8 0 0 1 2933.699951 559.400024 A 8 8 0 0 1 2925.699951 551.400024 A 8 8 0 0 1 2933.699951 543.400024 A 8 8 0 0 1 2941.699951 551.400024 Z" class="st4" style="fill: rgb(106, 191, 175);"/>
			<path d="M 2941.699951 252.100006 A 8 8 0 0 1 2933.699951 260.100006 A 8 8 0 0 1 2925.699951 252.100006 A 8 8 0 0 1 2933.699951 244.100006 A 8 8 0 0 1 2941.699951 252.100006 Z" class="st4" style="fill: rgb(106, 191, 175);"/>
			<path d="M 2941.699951 479.200012 A 8 8 0 0 1 2933.699951 487.200012 A 8 8 0 0 1 2925.699951 479.200012 A 8 8 0 0 1 2933.699951 471.200012 A 8 8 0 0 1 2941.699951 479.200012 Z" class="st4" style="fill: rgb(106, 191, 175);"/>
			<path d="M 2941.699951 620.099976 A 8 8 0 0 1 2933.699951 628.099976 A 8 8 0 0 1 2925.699951 620.099976 A 8 8 0 0 1 2933.699951 612.099976 A 8 8 0 0 1 2941.699951 620.099976 Z" class="st4" style="fill: rgb(106, 191, 175);"/>
			<path d="M 2941.699951 585.700012 A 8 8 0 0 1 2933.699951 593.700012 A 8 8 0 0 1 2925.699951 585.700012 A 8 8 0 0 1 2933.699951 577.700012 A 8 8 0 0 1 2941.699951 585.700012 Z" class="st4" style="fill: rgb(106, 191, 175);"/>
			<path d="M 2941.699951 327.799988 A 8 8 0 0 1 2933.699951 335.799988 A 8 8 0 0 1 2925.699951 327.799988 A 8 8 0 0 1 2933.699951 319.799988 A 8 8 0 0 1 2941.699951 327.799988 Z" class="st4" style="fill: rgb(106, 191, 175);"/>
			<path d="M 2941.699951 290 A 8 8 0 0 1 2933.699951 298 A 8 8 0 0 1 2925.699951 290 A 8 8 0 0 1 2933.699951 282 A 8 8 0 0 1 2941.699951 290 Z" class="st4" style="fill: rgb(106, 191, 175);"/>
			<path d="M 2941.699951 654.400024 A 8 8 0 0 1 2933.699951 662.400024 A 8 8 0 0 1 2925.699951 654.400024 A 8 8 0 0 1 2933.699951 646.400024 A 8 8 0 0 1 2941.699951 654.400024 Z" class="st4" style="fill: rgb(106, 191, 175);"/>
			<path d="M 2941.699951 441.399994 A 8 8 0 0 1 2933.699951 449.399994 A 8 8 0 0 1 2925.699951 441.399994 A 8 8 0 0 1 2933.699951 433.399994 A 8 8 0 0 1 2941.699951 441.399994 Z" class="st4" style="fill: rgb(106, 191, 175);"/>
			<path d="M 2941.699951 365.700012 A 8 8 0 0 1 2933.699951 373.700012 A 8 8 0 0 1 2925.699951 365.700012 A 8 8 0 0 1 2933.699951 357.700012 A 8 8 0 0 1 2941.699951 365.700012 Z" class="st4" style="fill: rgb(106, 191, 175);"/>
			<path d="M 2983.699951 290 A 8 8 0 0 1 2975.699951 298 A 8 8 0 0 1 2967.699951 290 A 8 8 0 0 1 2975.699951 282 A 8 8 0 0 1 2983.699951 290 Z" class="st4" style="fill: rgb(106, 191, 175);"/>
			<path d="M 2815.699951 441.399994 A 8 8 0 0 1 2807.699951 449.399994 A 8 8 0 0 1 2799.699951 441.399994 A 8 8 0 0 1 2807.699951 433.399994 A 8 8 0 0 1 2815.699951 441.399994 Z" class="st4" style="fill: rgb(106, 191, 175);"/>
			<path d="M 2815.699951 688.700012 A 8 8 0 0 1 2807.699951 696.700012 A 8 8 0 0 1 2799.699951 688.700012 A 8 8 0 0 1 2807.699951 680.700012 A 8 8 0 0 1 2815.699951 688.700012 Z" class="st4" style="fill: rgb(106, 191, 175);"/>
			<path d="M 2815.699951 327.799988 A 8 8 0 0 1 2807.699951 335.799988 A 8 8 0 0 1 2799.699951 327.799988 A 8 8 0 0 1 2807.699951 319.799988 A 8 8 0 0 1 2815.699951 327.799988 Z" class="st4" style="fill: rgb(106, 191, 175);"/>
			<path d="M 2815.699951 365.700012 A 8 8 0 0 1 2807.699951 373.700012 A 8 8 0 0 1 2799.699951 365.700012 A 8 8 0 0 1 2807.699951 357.700012 A 8 8 0 0 1 2815.699951 365.700012 Z" class="st4" style="fill: rgb(106, 191, 175);"/>
			<path d="M 2815.699951 479.200012 A 8 8 0 0 1 2807.699951 487.200012 A 8 8 0 0 1 2799.699951 479.200012 A 8 8 0 0 1 2807.699951 471.200012 A 8 8 0 0 1 2815.699951 479.200012 Z" class="st4" style="fill: rgb(106, 191, 175);"/>
			<path d="M 2815.699951 551.400024 A 8 8 0 0 1 2807.699951 559.400024 A 8 8 0 0 1 2799.699951 551.400024 A 8 8 0 0 1 2807.699951 543.400024 A 8 8 0 0 1 2815.699951 551.400024 Z" class="st4" style="fill: rgb(106, 191, 175);"/>
			<path d="M 2815.699951 654.400024 A 8 8 0 0 1 2807.699951 662.400024 A 8 8 0 0 1 2799.699951 654.400024 A 8 8 0 0 1 2807.699951 646.400024 A 8 8 0 0 1 2815.699951 654.400024 Z" class="st4" style="fill: rgb(106, 191, 175);"/>
			<path d="M 2815.699951 620.099976 A 8 8 0 0 1 2807.699951 628.099976 A 8 8 0 0 1 2799.699951 620.099976 A 8 8 0 0 1 2807.699951 612.099976 A 8 8 0 0 1 2815.699951 620.099976 Z" class="st4" style="fill: rgb(106, 191, 175);"/>
			<path d="M 2815.699951 585.700012 A 8 8 0 0 1 2807.699951 593.700012 A 8 8 0 0 1 2799.699951 585.700012 A 8 8 0 0 1 2807.699951 577.700012 A 8 8 0 0 1 2815.699951 585.700012 Z" class="st4" style="fill: rgb(106, 191, 175);"/>
			<path d="M 2815.699951 252.100006 A 8 8 0 0 1 2807.699951 260.100006 A 8 8 0 0 1 2799.699951 252.100006 A 8 8 0 0 1 2807.699951 244.100006 A 8 8 0 0 1 2815.699951 252.100006 Z" class="st4" style="fill: rgb(106, 191, 175);"/>
			<path d="M 2815.699951 517.099976 A 8 8 0 0 1 2807.699951 525.099976 A 8 8 0 0 1 2799.699951 517.099976 A 8 8 0 0 1 2807.699951 509.099976 A 8 8 0 0 1 2815.699951 517.099976 Z" class="st4" style="fill: rgb(106, 191, 175);"/>
			<path d="M 2815.699951 403.5 A 8 8 0 0 1 2807.699951 411.5 A 8 8 0 0 1 2799.699951 403.5 A 8 8 0 0 1 2807.699951 395.5 A 8 8 0 0 1 2815.699951 403.5 Z" class="st4" style="fill: rgb(106, 191, 175);"/>
			<path d="M 2773.699951 517.099976 A 8 8 0 0 1 2765.699951 525.099976 A 8 8 0 0 1 2757.699951 517.099976 A 8 8 0 0 1 2765.699951 509.099976 A 8 8 0 0 1 2773.699951 517.099976 Z" class="st4" style="fill: rgb(106, 191, 175);"/>
			<path d="M 2773.699951 585.700012 A 8 8 0 0 1 2765.699951 593.700012 A 8 8 0 0 1 2757.699951 585.700012 A 8 8 0 0 1 2765.699951 577.700012 A 8 8 0 0 1 2773.699951 585.700012 Z" class="st4" style="fill: rgb(106, 191, 175);"/>
			<path d="M 2773.699951 551.400024 A 8 8 0 0 1 2765.699951 559.400024 A 8 8 0 0 1 2757.699951 551.400024 A 8 8 0 0 1 2765.699951 543.400024 A 8 8 0 0 1 2773.699951 551.400024 Z" class="st4" style="fill: rgb(106, 191, 175);"/>
			<path d="M 2773.699951 479.200012 A 8 8 0 0 1 2765.699951 487.200012 A 8 8 0 0 1 2757.699951 479.200012 A 8 8 0 0 1 2765.699951 471.200012 A 8 8 0 0 1 2773.699951 479.200012 Z" class="st4" style="fill: rgb(106, 191, 175);"/>
			<path d="M 2773.699951 441.399994 A 8 8 0 0 1 2765.699951 449.399994 A 8 8 0 0 1 2757.699951 441.399994 A 8 8 0 0 1 2765.699951 433.399994 A 8 8 0 0 1 2773.699951 441.399994 Z" class="st4" style="fill: rgb(106, 191, 175);"/>
			<path d="M 2773.699951 688.700012 A 8 8 0 0 1 2765.699951 696.700012 A 8 8 0 0 1 2757.699951 688.700012 A 8 8 0 0 1 2765.699951 680.700012 A 8 8 0 0 1 2773.699951 688.700012 Z" class="st4" style="fill: rgb(106, 191, 175);"/>
			<path d="M 2773.699951 757.400024 A 8 8 0 0 1 2765.699951 765.400024 A 8 8 0 0 1 2757.699951 757.400024 A 8 8 0 0 1 2765.699951 749.400024 A 8 8 0 0 1 2773.699951 757.400024 Z" class="st4" style="fill: rgb(106, 191, 175);"/>
			<path d="M 2773.699951 723 A 8 8 0 0 1 2765.699951 731 A 8 8 0 0 1 2757.699951 723 A 8 8 0 0 1 2765.699951 715 A 8 8 0 0 1 2773.699951 723 Z" class="st4" style="fill: rgb(106, 191, 175);"/>
			<path d="M 2773.699951 620.099976 A 8 8 0 0 1 2765.699951 628.099976 A 8 8 0 0 1 2757.699951 620.099976 A 8 8 0 0 1 2765.699951 612.099976 A 8 8 0 0 1 2773.699951 620.099976 Z" class="st4" style="fill: rgb(106, 191, 175);"/>
			<path d="M 2773.699951 403.5 A 8 8 0 0 1 2765.699951 411.5 A 8 8 0 0 1 2757.699951 403.5 A 8 8 0 0 1 2765.699951 395.5 A 8 8 0 0 1 2773.699951 403.5 Z" class="st4" style="fill: rgb(106, 191, 175);"/>
			<path d="M 2773.699951 654.400024 A 8 8 0 0 1 2765.699951 662.400024 A 8 8 0 0 1 2757.699951 654.400024 A 8 8 0 0 1 2765.699951 646.400024 A 8 8 0 0 1 2773.699951 654.400024 Z" class="st4" style="fill: rgb(106, 191, 175);"/>
			<path d="M 2815.699951 290 A 8 8 0 0 1 2807.699951 298 A 8 8 0 0 1 2799.699951 290 A 8 8 0 0 1 2807.699951 282 A 8 8 0 0 1 2815.699951 290 Z" class="st4" style="fill: rgb(106, 191, 175);"/>
			<path d="M 2605.699951 551.400024 A 8 8 0 0 1 2597.699951 559.400024 A 8 8 0 0 1 2589.699951 551.400024 A 8 8 0 0 1 2597.699951 543.400024 A 8 8 0 0 1 2605.699951 551.400024 Z" class="st4" style="fill: rgb(106, 191, 175);"/>
			<path d="M 2605.699951 365.700012 A 8 8 0 0 1 2597.699951 373.700012 A 8 8 0 0 1 2589.699951 365.700012 A 8 8 0 0 1 2597.699951 357.700012 A 8 8 0 0 1 2605.699951 365.700012 Z" class="st4" style="fill: rgb(106, 191, 175);"/>
			<path d="M 2605.699951 441.399994 A 8 8 0 0 1 2597.699951 449.399994 A 8 8 0 0 1 2589.699951 441.399994 A 8 8 0 0 1 2597.699951 433.399994 A 8 8 0 0 1 2605.699951 441.399994 Z" class="st4" style="fill: rgb(106, 191, 175);"/>
			<path d="M 2731.699951 723 A 8 8 0 0 1 2723.699951 731 A 8 8 0 0 1 2715.699951 723 A 8 8 0 0 1 2723.699951 715 A 8 8 0 0 1 2731.699951 723 Z" class="st4" style="fill: rgb(106, 191, 175);"/>
			<path d="M 2605.699951 585.700012 A 8 8 0 0 1 2597.699951 593.700012 A 8 8 0 0 1 2589.699951 585.700012 A 8 8 0 0 1 2597.699951 577.700012 A 8 8 0 0 1 2605.699951 585.700012 Z" class="st4" style="fill: rgb(106, 191, 175);"/>
			<path d="M 2605.699951 517.099976 A 8 8 0 0 1 2597.699951 525.099976 A 8 8 0 0 1 2589.699951 517.099976 A 8 8 0 0 1 2597.699951 509.099976 A 8 8 0 0 1 2605.699951 517.099976 Z" class="st4" style="fill: rgb(106, 191, 175);"/>
			<path d="M 2605.699951 327.799988 A 8 8 0 0 1 2597.699951 335.799988 A 8 8 0 0 1 2589.699951 327.799988 A 8 8 0 0 1 2597.699951 319.799988 A 8 8 0 0 1 2605.699951 327.799988 Z" class="st4" style="fill: rgb(106, 191, 175);"/>
			<path d="M 2605.699951 620.099976 A 8 8 0 0 1 2597.699951 628.099976 A 8 8 0 0 1 2589.699951 620.099976 A 8 8 0 0 1 2597.699951 612.099976 A 8 8 0 0 1 2605.699951 620.099976 Z" class="st4" style="fill: rgb(106, 191, 175);"/>
			<path d="M 2605.699951 654.400024 A 8 8 0 0 1 2597.699951 662.400024 A 8 8 0 0 1 2589.699951 654.400024 A 8 8 0 0 1 2597.699951 646.400024 A 8 8 0 0 1 2605.699951 654.400024 Z" class="st4" style="fill: rgb(106, 191, 175);"/>
			<path d="M 2605.699951 403.5 A 8 8 0 0 1 2597.699951 411.5 A 8 8 0 0 1 2589.699951 403.5 A 8 8 0 0 1 2597.699951 395.5 A 8 8 0 0 1 2605.699951 403.5 Z" class="st4" style="fill: rgb(106, 191, 175);"/>
			<path d="M 2563.699951 517.099976 A 8 8 0 0 1 2555.699951 525.099976 A 8 8 0 0 1 2547.699951 517.099976 A 8 8 0 0 1 2555.699951 509.099976 A 8 8 0 0 1 2563.699951 517.099976 Z" class="st4" style="fill: rgb(106, 191, 175);"/>
			<path d="M 2815.699951 220.199997 A 8 8 0 0 1 2807.699951 228.199997 A 8 8 0 0 1 2799.699951 220.199997 A 8 8 0 0 1 2807.699951 212.199997 A 8 8 0 0 1 2815.699951 220.199997 Z" class="st4" style="fill: rgb(106, 191, 175);"/>
			<path d="M 2815.699951 757.400024 A 8 8 0 0 1 2807.699951 765.400024 A 8 8 0 0 1 2799.699951 757.400024 A 8 8 0 0 1 2807.699951 749.400024 A 8 8 0 0 1 2815.699951 757.400024 Z" class="st4" style="fill: rgb(106, 191, 175);"/>
			<path d="M 2563.699951 551.400024 A 8 8 0 0 1 2555.699951 559.400024 A 8 8 0 0 1 2547.699951 551.400024 A 8 8 0 0 1 2555.699951 543.400024 A 8 8 0 0 1 2563.699951 551.400024 Z" class="st4" style="fill: rgb(106, 191, 175);"/>
			<path d="M 2815.699951 723 A 8 8 0 0 1 2807.699951 731 A 8 8 0 0 1 2799.699951 723 A 8 8 0 0 1 2807.699951 715 A 8 8 0 0 1 2815.699951 723 Z" class="st4" style="fill: rgb(106, 191, 175);"/>
			<path d="M 2563.699951 479.200012 A 8 8 0 0 1 2555.699951 487.200012 A 8 8 0 0 1 2547.699951 479.200012 A 8 8 0 0 1 2555.699951 471.200012 A 8 8 0 0 1 2563.699951 479.200012 Z" class="st4" style="fill: rgb(106, 191, 175);"/>
			<path d="M 2563.699951 585.700012 A 8 8 0 0 1 2555.699951 593.700012 A 8 8 0 0 1 2547.699951 585.700012 A 8 8 0 0 1 2555.699951 577.700012 A 8 8 0 0 1 2563.699951 585.700012 Z" class="st4" style="fill: rgb(106, 191, 175);"/>
			<path d="M 2563.699951 403.5 A 8 8 0 0 1 2555.699951 411.5 A 8 8 0 0 1 2547.699951 403.5 A 8 8 0 0 1 2555.699951 395.5 A 8 8 0 0 1 2563.699951 403.5 Z" class="st4" style="fill: rgb(106, 191, 175);"/>
			<path d="M 2563.699951 441.399994 A 8 8 0 0 1 2555.699951 449.399994 A 8 8 0 0 1 2547.699951 441.399994 A 8 8 0 0 1 2555.699951 433.399994 A 8 8 0 0 1 2563.699951 441.399994 Z" class="st4" style="fill: rgb(106, 191, 175);"/>
			<path d="M 2605.699951 479.200012 A 8 8 0 0 1 2597.699951 487.200012 A 8 8 0 0 1 2589.699951 479.200012 A 8 8 0 0 1 2597.699951 471.200012 A 8 8 0 0 1 2605.699951 479.200012 Z" class="st4" style="fill: rgb(106, 191, 175);"/>
			<path d="M 2689.699951 654.400024 A 8 8 0 0 1 2681.699951 662.400024 A 8 8 0 0 1 2673.699951 654.400024 A 8 8 0 0 1 2681.699951 646.400024 A 8 8 0 0 1 2689.699951 654.400024 Z" class="st4" style="fill: rgb(106, 191, 175);"/>
			<path d="M 2689.699951 723 A 8 8 0 0 1 2681.699951 731 A 8 8 0 0 1 2673.699951 723 A 8 8 0 0 1 2681.699951 715 A 8 8 0 0 1 2689.699951 723 Z" class="st4" style="fill: rgb(106, 191, 175);"/>
			<path d="M 2689.699951 688.700012 A 8 8 0 0 1 2681.699951 696.700012 A 8 8 0 0 1 2673.699951 688.700012 A 8 8 0 0 1 2681.699951 680.700012 A 8 8 0 0 1 2689.699951 688.700012 Z" class="st4" style="fill: rgb(106, 191, 175);"/>
			<path d="M 2731.699951 327.799988 A 8 8 0 0 1 2723.699951 335.799988 A 8 8 0 0 1 2715.699951 327.799988 A 8 8 0 0 1 2723.699951 319.799988 A 8 8 0 0 1 2731.699951 327.799988 Z" class="st4" style="fill: rgb(106, 191, 175);"/>
			<path d="M 2731.699951 252.100006 A 8 8 0 0 1 2723.699951 260.100006 A 8 8 0 0 1 2715.699951 252.100006 A 8 8 0 0 1 2723.699951 244.100006 A 8 8 0 0 1 2731.699951 252.100006 Z" class="st4" style="fill: rgb(106, 191, 175);"/>
			<path d="M 2731.699951 290 A 8 8 0 0 1 2723.699951 298 A 8 8 0 0 1 2715.699951 290 A 8 8 0 0 1 2723.699951 282 A 8 8 0 0 1 2731.699951 290 Z" class="st4" style="fill: rgb(106, 191, 175);"/>
			<path d="M 2689.699951 517.099976 A 8 8 0 0 1 2681.699951 525.099976 A 8 8 0 0 1 2673.699951 517.099976 A 8 8 0 0 1 2681.699951 509.099976 A 8 8 0 0 1 2689.699951 517.099976 Z" class="st4" style="fill: rgb(106, 191, 175);"/>
			<path d="M 2689.699951 479.200012 A 8 8 0 0 1 2681.699951 487.200012 A 8 8 0 0 1 2673.699951 479.200012 A 8 8 0 0 1 2681.699951 471.200012 A 8 8 0 0 1 2689.699951 479.200012 Z" class="st4" style="fill: rgb(106, 191, 175);"/>
			<path d="M 2689.699951 620.099976 A 8 8 0 0 1 2681.699951 628.099976 A 8 8 0 0 1 2673.699951 620.099976 A 8 8 0 0 1 2681.699951 612.099976 A 8 8 0 0 1 2689.699951 620.099976 Z" class="st4" style="fill: rgb(106, 191, 175);"/>
			<path d="M 2689.699951 585.700012 A 8 8 0 0 1 2681.699951 593.700012 A 8 8 0 0 1 2673.699951 585.700012 A 8 8 0 0 1 2681.699951 577.700012 A 8 8 0 0 1 2689.699951 585.700012 Z" class="st4" style="fill: rgb(106, 191, 175);"/>
			<path d="M 2689.699951 551.400024 A 8 8 0 0 1 2681.699951 559.400024 A 8 8 0 0 1 2673.699951 551.400024 A 8 8 0 0 1 2681.699951 543.400024 A 8 8 0 0 1 2689.699951 551.400024 Z" class="st4" style="fill: rgb(106, 191, 175);"/>
			<path d="M 2731.699951 479.200012 A 8 8 0 0 1 2723.699951 487.200012 A 8 8 0 0 1 2715.699951 479.200012 A 8 8 0 0 1 2723.699951 471.200012 A 8 8 0 0 1 2731.699951 479.200012 Z" class="st4" style="fill: rgb(106, 191, 175);"/>
			<path d="M 2731.699951 585.700012 A 8 8 0 0 1 2723.699951 593.700012 A 8 8 0 0 1 2715.699951 585.700012 A 8 8 0 0 1 2723.699951 577.700012 A 8 8 0 0 1 2731.699951 585.700012 Z" class="st4" style="fill: rgb(106, 191, 175);"/>
			<path d="M 2731.699951 654.400024 A 8 8 0 0 1 2723.699951 662.400024 A 8 8 0 0 1 2715.699951 654.400024 A 8 8 0 0 1 2723.699951 646.400024 A 8 8 0 0 1 2731.699951 654.400024 Z" class="st4" style="fill: rgb(106, 191, 175);"/>
			<path d="M 2731.699951 620.099976 A 8 8 0 0 1 2723.699951 628.099976 A 8 8 0 0 1 2715.699951 620.099976 A 8 8 0 0 1 2723.699951 612.099976 A 8 8 0 0 1 2731.699951 620.099976 Z" class="st4" style="fill: rgb(106, 191, 175);"/>
			<path d="M 2731.699951 365.700012 A 8 8 0 0 1 2723.699951 373.700012 A 8 8 0 0 1 2715.699951 365.700012 A 8 8 0 0 1 2723.699951 357.700012 A 8 8 0 0 1 2731.699951 365.700012 Z" class="st4" style="fill: rgb(106, 191, 175);"/>
			<path d="M 2731.699951 757.400024 A 8 8 0 0 1 2723.699951 765.400024 A 8 8 0 0 1 2715.699951 757.400024 A 8 8 0 0 1 2723.699951 749.400024 A 8 8 0 0 1 2731.699951 757.400024 Z" class="st4" style="fill: rgb(106, 191, 175);"/>
			<path d="M 2731.699951 688.700012 A 8 8 0 0 1 2723.699951 696.700012 A 8 8 0 0 1 2715.699951 688.700012 A 8 8 0 0 1 2723.699951 680.700012 A 8 8 0 0 1 2731.699951 688.700012 Z" class="st4" style="fill: rgb(106, 191, 175);"/>
			<path d="M 2731.699951 403.5 A 8 8 0 0 1 2723.699951 411.5 A 8 8 0 0 1 2715.699951 403.5 A 8 8 0 0 1 2723.699951 395.5 A 8 8 0 0 1 2731.699951 403.5 Z" class="st4" style="fill: rgb(106, 191, 175);"/>
			<path d="M 2731.699951 551.400024 A 8 8 0 0 1 2723.699951 559.400024 A 8 8 0 0 1 2715.699951 551.400024 A 8 8 0 0 1 2723.699951 543.400024 A 8 8 0 0 1 2731.699951 551.400024 Z" class="st4" style="fill: rgb(106, 191, 175);"/>
			<path d="M 2731.699951 441.399994 A 8 8 0 0 1 2723.699951 449.399994 A 8 8 0 0 1 2715.699951 441.399994 A 8 8 0 0 1 2723.699951 433.399994 A 8 8 0 0 1 2731.699951 441.399994 Z" class="st4" style="fill: rgb(106, 191, 175);"/>
			<path d="M 2689.699951 441.399994 A 8 8 0 0 1 2681.699951 449.399994 A 8 8 0 0 1 2673.699951 441.399994 A 8 8 0 0 1 2681.699951 433.399994 A 8 8 0 0 1 2689.699951 441.399994 Z" class="st4" style="fill: rgb(106, 191, 175);"/>
			<path d="M 2731.699951 517.099976 A 8 8 0 0 1 2723.699951 525.099976 A 8 8 0 0 1 2715.699951 517.099976 A 8 8 0 0 1 2723.699951 509.099976 A 8 8 0 0 1 2731.699951 517.099976 Z" class="st4" style="fill: rgb(106, 191, 175);"/>
			<path d="M 2773.699951 327.799988 A 8 8 0 0 1 2765.699951 335.799988 A 8 8 0 0 1 2757.699951 327.799988 A 8 8 0 0 1 2765.699951 319.799988 A 8 8 0 0 1 2773.699951 327.799988 Z" class="st4" style="fill: rgb(106, 191, 175);"/>
			<path d="M 2647.699951 403.5 A 8 8 0 0 1 2639.699951 411.5 A 8 8 0 0 1 2631.699951 403.5 A 8 8 0 0 1 2639.699951 395.5 A 8 8 0 0 1 2647.699951 403.5 Z" class="st4" style="fill: rgb(106, 191, 175);"/>
			<path d="M 2647.699951 688.700012 A 8 8 0 0 1 2639.699951 696.700012 A 8 8 0 0 1 2631.699951 688.700012 A 8 8 0 0 1 2639.699951 680.700012 A 8 8 0 0 1 2647.699951 688.700012 Z" class="st4" style="fill: rgb(106, 191, 175);"/>
			<path d="M 2647.699951 327.799988 A 8 8 0 0 1 2639.699951 335.799988 A 8 8 0 0 1 2631.699951 327.799988 A 8 8 0 0 1 2639.699951 319.799988 A 8 8 0 0 1 2647.699951 327.799988 Z" class="st4" style="fill: rgb(106, 191, 175);"/>
			<path d="M 2647.699951 365.700012 A 8 8 0 0 1 2639.699951 373.700012 A 8 8 0 0 1 2631.699951 365.700012 A 8 8 0 0 1 2639.699951 357.700012 A 8 8 0 0 1 2647.699951 365.700012 Z" class="st4" style="fill: rgb(106, 191, 175);"/>
			<path d="M 2647.699951 290 A 8 8 0 0 1 2639.699951 298 A 8 8 0 0 1 2631.699951 290 A 8 8 0 0 1 2639.699951 282 A 8 8 0 0 1 2647.699951 290 Z" class="st4" style="fill: rgb(106, 191, 175);"/>
			<path d="M 2773.699951 365.700012 A 8 8 0 0 1 2765.699951 373.700012 A 8 8 0 0 1 2757.699951 365.700012 A 8 8 0 0 1 2765.699951 357.700012 A 8 8 0 0 1 2773.699951 365.700012 Z" class="st4" style="fill: rgb(106, 191, 175);"/>
			<path d="M 2773.699951 290 A 8 8 0 0 1 2765.699951 298 A 8 8 0 0 1 2757.699951 290 A 8 8 0 0 1 2765.699951 282 A 8 8 0 0 1 2773.699951 290 Z" class="st4" style="fill: rgb(106, 191, 175);"/>
			<path d="M 2773.699951 220.199997 A 8 8 0 0 1 2765.699951 228.199997 A 8 8 0 0 1 2757.699951 220.199997 A 8 8 0 0 1 2765.699951 212.199997 A 8 8 0 0 1 2773.699951 220.199997 Z" class="st4" style="fill: rgb(106, 191, 175);"/>
			<path d="M 2773.699951 252.100006 A 8 8 0 0 1 2765.699951 260.100006 A 8 8 0 0 1 2757.699951 252.100006 A 8 8 0 0 1 2765.699951 244.100006 A 8 8 0 0 1 2773.699951 252.100006 Z" class="st4" style="fill: rgb(106, 191, 175);"/>
			<path d="M 2647.699951 517.099976 A 8 8 0 0 1 2639.699951 525.099976 A 8 8 0 0 1 2631.699951 517.099976 A 8 8 0 0 1 2639.699951 509.099976 A 8 8 0 0 1 2647.699951 517.099976 Z" class="st4" style="fill: rgb(106, 191, 175);"/>
			<path d="M 2689.699951 290 A 8 8 0 0 1 2681.699951 298 A 8 8 0 0 1 2673.699951 290 A 8 8 0 0 1 2681.699951 282 A 8 8 0 0 1 2689.699951 290 Z" class="st4" style="fill: rgb(106, 191, 175);"/>
			<path d="M 2689.699951 252.100006 A 8 8 0 0 1 2681.699951 260.100006 A 8 8 0 0 1 2673.699951 252.100006 A 8 8 0 0 1 2681.699951 244.100006 A 8 8 0 0 1 2689.699951 252.100006 Z" class="st4" style="fill: rgb(106, 191, 175);"/>
			<path d="M 2689.699951 365.700012 A 8 8 0 0 1 2681.699951 373.700012 A 8 8 0 0 1 2673.699951 365.700012 A 8 8 0 0 1 2681.699951 357.700012 A 8 8 0 0 1 2689.699951 365.700012 Z" class="st4" style="fill: rgb(106, 191, 175);"/>
			<path d="M 2647.699951 620.099976 A 8 8 0 0 1 2639.699951 628.099976 A 8 8 0 0 1 2631.699951 620.099976 A 8 8 0 0 1 2639.699951 612.099976 A 8 8 0 0 1 2647.699951 620.099976 Z" class="st4" style="fill: rgb(106, 191, 175);"/>
			<path d="M 2689.699951 327.799988 A 8 8 0 0 1 2681.699951 335.799988 A 8 8 0 0 1 2673.699951 327.799988 A 8 8 0 0 1 2681.699951 319.799988 A 8 8 0 0 1 2689.699951 327.799988 Z" class="st4" style="fill: rgb(106, 191, 175);"/>
			<path d="M 2647.699951 441.399994 A 8 8 0 0 1 2639.699951 449.399994 A 8 8 0 0 1 2631.699951 441.399994 A 8 8 0 0 1 2639.699951 433.399994 A 8 8 0 0 1 2647.699951 441.399994 Z" class="st4" style="fill: rgb(106, 191, 175);"/>
			<path d="M 2689.699951 403.5 A 8 8 0 0 1 2681.699951 411.5 A 8 8 0 0 1 2673.699951 403.5 A 8 8 0 0 1 2681.699951 395.5 A 8 8 0 0 1 2689.699951 403.5 Z" class="st4" style="fill: rgb(106, 191, 175);"/>
			<path d="M 2647.699951 654.400024 A 8 8 0 0 1 2639.699951 662.400024 A 8 8 0 0 1 2631.699951 654.400024 A 8 8 0 0 1 2639.699951 646.400024 A 8 8 0 0 1 2647.699951 654.400024 Z" class="st4" style="fill: rgb(106, 191, 175);"/>
			<path d="M 2647.699951 479.200012 A 8 8 0 0 1 2639.699951 487.200012 A 8 8 0 0 1 2631.699951 479.200012 A 8 8 0 0 1 2639.699951 471.200012 A 8 8 0 0 1 2647.699951 479.200012 Z" class="st4" style="fill: rgb(106, 191, 175);"/>
			<path d="M 2647.699951 585.700012 A 8 8 0 0 1 2639.699951 593.700012 A 8 8 0 0 1 2631.699951 585.700012 A 8 8 0 0 1 2639.699951 577.700012 A 8 8 0 0 1 2647.699951 585.700012 Z" class="st4" style="fill: rgb(106, 191, 175);"/>
			<path d="M 2647.699951 551.400024 A 8 8 0 0 1 2639.699951 559.400024 A 8 8 0 0 1 2631.699951 551.400024 A 8 8 0 0 1 2639.699951 543.400024 A 8 8 0 0 1 2647.699951 551.400024 Z" class="st4" style="fill: rgb(106, 191, 175);"/>
		</g><path d="M 2080.399902 600 H 2999.999878 V 912.899994 H 2080.399902 V 600 Z" class="st3" style="fill: rgb(254, 242, 218);" transform="matrix(1, 0, 0, 1, 0, -7.105427357601002e-15)"/><g transform="matrix(1, 0, 0, 1, 0, -7.105427357601002e-15)">
				<path d="M 2191.699951171875 742.2999877929688 L 2170.39990234375 638.7000122070312 L 2150.199951171875 638.7000122070312 L 2150.199951171875 768.4000244140625 L 2162.800048828125 768.4000244140625 L 2162.800048828125 665 L 2184.300048828125 768.2999877929688 L 2198.199951171875 768.2999877929688 L 2218.800048828125 664.0999755859375 L 2218.800048828125 768.4000244140625 L 2232.5 768.4000244140625 L 2232.5 638.7000122070312 L 2212.300048828125 638.7000122070312 Z" class="st0" style="fill: rgb(122, 206, 190);"/>
				<path d="M 2265.89990234375 768.4000244140625 L 2319.300048828125 768.4000244140625 L 2319.300048828125 755.2999877929688 L 2280.300048828125 755.2999877929688 L 2280.300048828125 709.0999755859375 L 2312 709.0999755859375 L 2312 696.0999755859375 L 2280.300048828125 696.0999755859375 L 2280.300048828125 651.7999877929688 L 2319.300048828125 651.7999877929688 L 2319.300048828125 638.7000122070312 L 2265.89990234375 638.7000122070312 Z" class="st0" style="fill: rgb(122, 206, 190);"/>
				<path d="M 2392.5 742.2999877929688 L 2371.199951171875 638.7000122070312 L 2351 638.7000122070312 L 2351 768.4000244140625 L 2363.60009765625 768.4000244140625 L 2363.60009765625 665 L 2385.10009765625 768.2999877929688 L 2399 768.2999877929688 L 2419.60009765625 664.0999755859375 L 2419.60009765625 768.4000244140625 L 2433.300048828125 768.4000244140625 L 2433.300048828125 638.7000122070312 L 2413.10009765625 638.7000122070312 Z" class="st0" style="fill: rgb(122, 206, 190);"/>
				<path class="st0" d="M2495,638.7h-28.4v129.8h14.5v-51.2h12.8c20.6,0,30.2-10.8,30.2-31.3v-15.6&#10;&#9;&#9;&#9;&#9;&#9;C2524.1,650.7,2515.4,638.7,2495,638.7z M2509.8,686.9c0,12.4-5.2,17.4-15.9,17.4h-12.8v-52.5h13.9c10.6,0,14.8,5.9,14.8,17.8&#10;&#9;&#9;&#9;&#9;&#9;V686.9z" style="fill: rgb(122, 206, 190);"/>
				<path d="M 2600.89990234375 697.0999755859375 L 2569 697.0999755859375 L 2569 638.7000122070312 L 2554.5 638.7000122070312 L 2554.5 768.4000244140625 L 2569 768.4000244140625 L 2569 710.0999755859375 L 2600.89990234375 710.0999755859375 L 2600.89990234375 768.4000244140625 L 2615.300048828125 768.4000244140625 L 2615.300048828125 638.7000122070312 L 2600.89990234375 638.7000122070312 Z" class="st0" style="fill: rgb(122, 206, 190);"/>
				<path d="M 2648.699951 638.700012 H 2663.199951 V 768.500015 H 2648.699951 V 638.700012 Z" class="st0" style="fill: rgb(122, 206, 190);"/>
				<path class="st0" d="M2709.3,668.9c0-11.5,4.4-18.4,14.8-18.4s14.8,6.9,14.8,18.5v4.3h13.7v-3.5c0-19.7-9.3-32.4-28.9-32.4&#10;&#9;&#9;&#9;&#9;&#9;c-19.5,0-28.7,12.4-28.7,32.4c0,36.5,43.4,39.3,43.4,68.2c0,11.7-4.8,18.5-15.2,18.5c-10.4,0-15.2-6.9-15.2-18.5v-8.2h-13.5v7.4&#10;&#9;&#9;&#9;&#9;&#9;c0,19.7,9.3,32.4,29.1,32.4c19.8,0,29.3-12.8,29.3-32.4C2752.9,700.8,2709.3,698,2709.3,668.9z" style="fill: rgb(122, 206, 190);"/>
			</g><g transform="matrix(1, 0, 0, 1, 0, -7.105427357601002e-15)">
				<path class="st0" d="M2175.7,832.9c4.4-2.1,6.4-6.2,6.4-12.8v-2.3c0-9.8-4.4-14.6-14.8-14.6h-15v63.4h15.7&#10;&#9;&#9;&#9;&#9;&#9;c10,0,15.1-5.3,15.1-15v-5.2C2183.1,839.8,2181,835,2175.7,832.9z M2162.3,812.4h4.8c3.5,0,5.1,2,5.1,6.5v3.5&#10;&#9;&#9;&#9;&#9;&#9;c0,5.1-2.3,6.7-6,6.7h-3.9V812.4z M2173.1,851.4c0,4.7-1.8,6.2-5.2,6.2h-5.7v-19.5h4.4c4.5,0,6.4,1.8,6.4,7.7V851.4z" style="fill: rgb(122, 206, 190);"/>
				<path class="st0" d="M2223.7,803.3l-10.1,63.4h9.1l1.7-11.5h12.2l1.7,11.5h10.1l-10.1-63.4H2223.7z M2225.7,846.6l4.8-32.1&#10;&#9;&#9;&#9;&#9;&#9;l4.8,32.1H2225.7z" style="fill: rgb(122, 206, 190);"/>
				<path class="st0" d="M2294.3,802.6c-9.8,0-14.8,5.8-14.8,15.9v33c0,10.1,5.1,15.9,14.8,15.9c9.8,0,14.8-5.8,14.8-15.9v-8.4h-9.4&#10;&#9;&#9;&#9;&#9;&#9;v9.1c0,4.5-2,6.2-5.2,6.2s-5.2-1.6-5.2-6.2v-34.2c0-4.5,2-6.2,5.2-6.2s5.2,1.7,5.2,6.2v6.8h9.4v-6.2&#10;&#9;&#9;&#9;&#9;&#9;C2309.1,808.4,2304.1,802.6,2294.3,802.6z" style="fill: rgb(122, 206, 190);"/>
				<path d="M 2365.39990234375 803.2999877929688 L 2352.300048828125 830.9000244140625 L 2352.300048828125 803.2999877929688 L 2342.39990234375 803.2999877929688 L 2342.39990234375 866.7000122070312 L 2352.300048828125 866.7000122070312 L 2352.300048828125 847.2000122070312 L 2355.39990234375 841.4000244140625 L 2365.10009765625 866.7000122070312 L 2375.300048828125 866.7000122070312 L 2361.5 831.5999755859375 L 2375.300048828125 803.2999877929688 Z" class="st0" style="fill: rgb(122, 206, 190);"/>
				<path class="st0" d="M2420.4,802.6c-9.8,0-14.8,5.8-14.8,15.9v33c0,10.1,5.1,15.9,14.8,15.9c9.8,0,14.8-5.8,14.8-15.9v-20.1&#10;&#9;&#9;&#9;&#9;&#9;h-13.9v9.1h4.5v11.7c0,4.5-2,6.2-5.2,6.2s-5.2-1.6-5.2-6.2v-34.2c0-4.5,2-6.2,5.2-6.2s5.2,1.7,5.2,6.2v6.8h9.4v-6.2&#10;&#9;&#9;&#9;&#9;&#9;C2435.3,808.4,2430.2,802.6,2420.4,802.6z" style="fill: rgb(122, 206, 190);"/>
				<path class="st0" d="M2498.7,849.2c0-6.6-1.6-11.4-6.6-13.5c4.4-2.1,6.5-6.3,6.5-12.9v-5c0-9.8-4.4-14.6-14.8-14.6h-15v63.4h10&#10;&#9;&#9;&#9;&#9;&#9;v-25.8h3.4c4.5,0,6.5,2.2,6.5,8.1v10c0,5.2,0.4,6.2,0.9,7.8h10.1c-1-2.4-1.1-4.6-1.1-7.7V849.2z M2488.7,825.1&#10;&#9;&#9;&#9;&#9;&#9;c0,5.1-2.3,6.7-6,6.7h-3.9v-19.5h4.8c3.5,0,5.1,2,5.1,6.5V825.1z" style="fill: rgb(122, 206, 190);"/>
				<path class="st0" d="M2546.7,802.6c-9.8,0-15.1,5.8-15.1,15.9v33c0,10.1,5.3,15.9,15.1,15.9c9.8,0,15.1-5.8,15.1-15.9v-33&#10;&#9;&#9;&#9;&#9;&#9;C2561.8,808.4,2556.5,802.6,2546.7,802.6z M2551.9,852.1c0,4.5-2,6.2-5.2,6.2s-5.2-1.7-5.2-6.2v-34.2c0-4.5,2-6.2,5.2-6.2&#10;&#9;&#9;&#9;&#9;&#9;s5.2,1.7,5.2,6.2V852.1z" style="fill: rgb(122, 206, 190);"/>
				<path class="st0" d="M2615.3,852.2c0,4.5-2,6.2-5.2,6.2c-3.2,0-5.2-1.6-5.2-6.2v-48.9h-10v48.3c0,10.1,5.1,15.9,14.8,15.9&#10;&#9;&#9;&#9;&#9;&#9;s14.8-5.8,14.8-15.9v-48.3h-9.4V852.2z" style="fill: rgb(122, 206, 190);"/>
				<path d="M 2681.300048828125 841.2000122070312 L 2671 803.2999877929688 L 2658.5 803.2999877929688 L 2658.5 866.7000122070312 L 2667.5 866.7000122070312 L 2667.5 820.7999877929688 L 2679.89990234375 866.7000122070312 L 2690.10009765625 866.7000122070312 L 2690.10009765625 803.2999877929688 L 2681.300048828125 803.2999877929688 Z" class="st0" style="fill: rgb(122, 206, 190);"/>
				<path class="st0" d="M2740.2,803.3h-15.8v63.4h15.8c10,0,14.8-5.5,14.8-15.7V819C2755.1,808.8,2750.2,803.3,2740.2,803.3z&#10;&#9;&#9;&#9;&#9;&#9; M2745.1,851.5c0,4.5-1.9,6.2-5.1,6.2h-5.6v-45.3h5.6c3.2,0,5.1,1.6,5.1,6.2V851.5z" style="fill: rgb(122, 206, 190);"/>
			</g><path class="st5" d="M790.8,671.8c-11,0-21.2,4.3-29,12c-9.4,9.4-24.6,9.4-33.9,0c-16-16-42-16-58,0c-9.4,9.4-24.6,9.4-33.9,0&#10;&#9;&#9;&#9;c-7.7-7.7-18-12-29-12s-21.2,4.3-29,12c-9.4,9.4-24.6,9.4-33.9,0c-16-16-42-16-58,0c-9.4,9.4-24.6,9.4-33.9,0c-16-16-42-16-58,0&#10;&#9;&#9;&#9;c-9.4,9.4-24.6,9.4-33.9,0c-7.7-7.7-18-12-29-12c-11,0-21.2,4.3-29,12c-3.3,3.3-3.3,8.7,0,12c3.3,3.3,8.7,3.3,12,0&#10;&#9;&#9;&#9;c9.4-9.4,24.6-9.4,33.9,0c16,16,42,16,58,0c9.4-9.4,24.6-9.4,33.9,0c16,16,42,16,58,0c4.5-4.5,10.6-7,17-7s12.4,2.5,17,7&#10;&#9;&#9;&#9;c16,16,42,16,58,0c4.5-4.5,10.6-7,17-7s12.4,2.5,17,7c7.7,7.7,18,12,29,12c11,0,21.2-4.3,29-12c9.4-9.4,24.6-9.4,33.9,0&#10;&#9;&#9;&#9;c16,16,42,16,58,0c9.4-9.4,24.6-9.4,33.9,0c3.3,3.3,8.7,3.3,12,0c3.3-3.3,3.3-8.7,0-12C812.1,676,801.8,671.8,790.8,671.8z" style="fill: rgb(255, 255, 255);" transform="matrix(1, 0, 0, 1, 0, -7.105427357601002e-15)"/><path class="st5" d="M790.8,757.2c-11,0-21.2,4.3-29,12c-9.4,9.4-24.6,9.4-33.9,0c-16-16-42-16-58,0c-9.4,9.4-24.6,9.4-33.9,0&#10;&#9;&#9;&#9;c-7.7-7.7-18-12-29-12s-21.2,4.3-29,12c-9.4,9.4-24.6,9.4-33.9,0c-16-16-42-16-58,0c-9.4,9.4-24.6,9.4-33.9,0c-16-16-42-16-58,0&#10;&#9;&#9;&#9;c-9.4,9.4-24.6,9.4-33.9,0c-7.7-7.7-18-12-29-12c-11,0-21.2,4.3-29,12c-3.3,3.3-3.3,8.7,0,12c3.3,3.3,8.7,3.3,12,0&#10;&#9;&#9;&#9;c9.4-9.4,24.6-9.4,33.9,0c16,16,42,16,58,0c9.4-9.4,24.6-9.4,33.9,0c16,16,42,16,58,0c4.5-4.5,10.6-7,17-7s12.4,2.5,17,7&#10;&#9;&#9;&#9;c16,16,42,16,58,0c4.5-4.5,10.6-7,17-7s12.4,2.5,17,7c7.7,7.7,18,12,29,12c11,0,21.2-4.3,29-12c9.4-9.4,24.6-9.4,33.9,0&#10;&#9;&#9;&#9;c16,16,42,16,58,0c9.4-9.4,24.6-9.4,33.9,0c3.3,3.3,8.7,3.3,12,0c3.3-3.3,3.3-8.7,0-12C812.1,761.5,801.8,757.2,790.8,757.2z" style="fill: rgb(255, 255, 255);" transform="matrix(1, 0, 0, 1, 0, -7.105427357601002e-15)"/><path class="st5" d="M790.8,842.7c-11,0-21.2,4.3-29,12c-9.4,9.4-24.6,9.4-33.9,0c-16-16-42-16-58,0c-9.4,9.4-24.6,9.4-33.9,0&#10;&#9;&#9;&#9;c-7.7-7.7-18-12-29-12s-21.2,4.3-29,12c-9.4,9.4-24.6,9.4-33.9,0c-16-16-42-16-58,0c-9.4,9.4-24.6,9.4-33.9,0c-16-16-42-16-58,0&#10;&#9;&#9;&#9;c-9.4,9.4-24.6,9.4-33.9,0c-7.7-7.7-18-12-29-12c-11,0-21.2,4.3-29,12c-3.3,3.3-3.3,8.7,0,12c3.3,3.3,8.7,3.3,12,0&#10;&#9;&#9;&#9;c9.4-9.4,24.6-9.4,33.9,0c16,16,42,16,58,0c9.4-9.4,24.6-9.4,33.9,0c16,16,42,16,58,0c4.5-4.5,10.6-7,17-7s12.4,2.5,17,7&#10;&#9;&#9;&#9;c16,16,42,16,58,0c4.5-4.5,10.6-7,17-7s12.4,2.5,17,7c7.7,7.7,18,12,29,12c11,0,21.2-4.3,29-12c9.4-9.4,24.6-9.4,33.9,0&#10;&#9;&#9;&#9;c16,16,42,16,58,0c9.4-9.4,24.6-9.4,33.9,0c3.3,3.3,8.7,3.3,12,0c3.3-3.3,3.3-8.7,0-12C812.1,847,801.8,842.7,790.8,842.7z" style="fill: rgb(255, 255, 255);" transform="matrix(1, 0, 0, 1, 0, -7.105427357601002e-15)"/><path class="st5" d="M790.8,928.2c-11,0-21.2,4.3-29,12c-9.4,9.4-24.6,9.4-33.9,0c-16-16-42-16-58,0c-9.4,9.4-24.6,9.4-33.9,0&#10;&#9;&#9;&#9;c-7.7-7.7-18-12-29-12s-21.2,4.3-29,12c-9.4,9.4-24.6,9.4-33.9,0c-16-16-42-16-58,0c-9.4,9.4-24.6,9.4-33.9,0c-16-16-42-16-58,0&#10;&#9;&#9;&#9;c-9.4,9.4-24.6,9.4-33.9,0c-7.7-7.7-18-12-29-12c-11,0-21.2,4.3-29,12c-3.3,3.3-3.3,8.7,0,12c3.3,3.3,8.7,3.3,12,0&#10;&#9;&#9;&#9;c9.4-9.4,24.6-9.4,33.9,0c16,16,42,16,58,0c9.4-9.4,24.6-9.4,33.9,0c16,16,42,16,58,0c4.5-4.5,10.6-7,17-7s12.4,2.5,17,7&#10;&#9;&#9;&#9;c16,16,42,16,58,0c4.5-4.5,10.6-7,17-7s12.4,2.5,17,7c7.7,7.7,18,12,29,12c11,0,21.2-4.3,29-12c9.4-9.4,24.6-9.4,33.9,0&#10;&#9;&#9;&#9;c16,16,42,16,58,0c9.4-9.4,24.6-9.4,33.9,0c3.3,3.3,8.7,3.3,12,0c3.3-3.3,3.3-8.7,0-12C812.1,932.4,801.8,928.2,790.8,928.2z" style="fill: rgb(254, 242, 218);" transform="matrix(1, 0, 0, 1, -158.92349923189204, -887.0821928491903)"/><path class="st5" d="M790.8,1013.6c-11,0-21.2,4.3-29,12c-9.4,9.4-24.6,9.4-33.9,0c-16-16-42-16-58,0c-9.4,9.4-24.6,9.4-33.9,0&#10;&#9;&#9;&#9;c-7.7-7.7-18-12-29-12s-21.2,4.3-29,12c-9.4,9.4-24.6,9.4-33.9,0c-16-16-42-16-58,0c-9.4,9.4-24.6,9.4-33.9,0c-16-16-42-16-58,0&#10;&#9;&#9;&#9;c-9.4,9.4-24.6,9.4-33.9,0c-7.7-7.7-18-12-29-12c-11,0-21.2,4.3-29,12c-3.3,3.3-3.3,8.7,0,12c3.3,3.3,8.7,3.3,12,0&#10;&#9;&#9;&#9;c9.4-9.4,24.6-9.4,33.9,0c16,16,42,16,58,0c9.4-9.4,24.6-9.4,33.9,0c16,16,42,16,58,0c4.5-4.5,10.6-7,17-7s12.4,2.5,17,7&#10;&#9;&#9;&#9;c16,16,42,16,58,0c4.5-4.5,10.6-7,17-7s12.4,2.5,17,7c7.7,7.7,18,12,29,12c11,0,21.2-4.3,29-12c9.4-9.4,24.6-9.4,33.9,0&#10;&#9;&#9;&#9;c16,16,42,16,58,0c9.4-9.4,24.6-9.4,33.9,0c3.3,3.3,8.7,3.3,12,0c3.3-3.3,3.3-8.7,0-12C812.1,1017.9,801.8,1013.6,790.8,1013.6z" style="fill: rgb(254, 242, 218);" transform="matrix(1, 0, 0, 1, -164.70256263585293, -924.645879113961)"/><g transform="matrix(1, 0, 0, 1, 0, -7.105427357601002e-15)">
			<path class="st0" d="M2917.6,1520c-11,0-21.2,4.3-29,12c-9.4,9.4-24.6,9.4-33.9,0c-16-16-42-16-58,0c-9.4,9.4-24.6,9.4-33.9,0&#10;&#9;&#9;&#9;&#9;c-7.7-7.7-18-12-29-12s-21.2,4.3-29,12c-9.4,9.4-24.6,9.4-33.9,0c-16-16-42-16-58,0c-9.4,9.4-24.6,9.4-33.9,0c-16-16-42-16-58,0&#10;&#9;&#9;&#9;&#9;c-9.4,9.4-24.6,9.4-33.9,0c-7.7-7.7-18-12-29-12c-11,0-21.2,4.3-29,12c-3.3,3.3-3.3,8.7,0,12c3.3,3.3,8.7,3.3,12,0&#10;&#9;&#9;&#9;&#9;c9.4-9.4,24.6-9.4,33.9,0c16,16,42,16,58,0c9.4-9.4,24.6-9.4,33.9,0c16,16,42,16,58,0c4.5-4.5,10.6-7,17-7s12.4,2.5,17,7&#10;&#9;&#9;&#9;&#9;c16,16,42,16,58,0c4.5-4.5,10.6-7,17-7s12.4,2.5,17,7c7.7,7.7,18,12,29,12c11,0,21.2-4.3,29-12c9.4-9.4,24.6-9.4,33.9,0&#10;&#9;&#9;&#9;&#9;c16,16,42,16,58,0c9.4-9.4,24.6-9.4,33.9,0c3.3,3.3,8.7,3.3,12,0c3.3-3.3,3.3-8.7,0-12C2938.9,1524.3,2928.6,1520,2917.6,1520z" style="fill: rgb(122, 206, 190);"/>
			<path class="st0" d="M2917.6,1605.5c-11,0-21.2,4.3-29,12c-9.4,9.4-24.6,9.4-33.9,0c-16-16-42-16-58,0c-9.4,9.4-24.6,9.4-33.9,0&#10;&#9;&#9;&#9;&#9;c-7.7-7.7-18-12-29-12s-21.2,4.3-29,12c-9.4,9.4-24.6,9.4-33.9,0c-16-16-42-16-58,0c-9.4,9.4-24.6,9.4-33.9,0c-16-16-42-16-58,0&#10;&#9;&#9;&#9;&#9;c-9.4,9.4-24.6,9.4-33.9,0c-7.7-7.7-18-12-29-12c-11,0-21.2,4.3-29,12c-3.3,3.3-3.3,8.7,0,12c3.3,3.3,8.7,3.3,12,0&#10;&#9;&#9;&#9;&#9;c9.4-9.4,24.6-9.4,33.9,0c16,16,42,16,58,0c9.4-9.4,24.6-9.4,33.9,0c16,16,42,16,58,0c4.5-4.5,10.6-7,17-7s12.4,2.5,17,7&#10;&#9;&#9;&#9;&#9;c16,16,42,16,58,0c4.5-4.5,10.6-7,17-7s12.4,2.5,17,7c7.7,7.7,18,12,29,12c11,0,21.2-4.3,29-12c9.4-9.4,24.6-9.4,33.9,0&#10;&#9;&#9;&#9;&#9;c16,16,42,16,58,0c9.4-9.4,24.6-9.4,33.9,0c3.3,3.3,8.7,3.3,12,0c3.3-3.3,3.3-8.7,0-12&#10;&#9;&#9;&#9;&#9;C2938.9,1609.7,2928.6,1605.5,2917.6,1605.5z" style="fill: rgb(122, 206, 190);"/>
			<path class="st0" d="M2917.6,1690.9c-11,0-21.2,4.3-29,12c-9.4,9.4-24.6,9.4-33.9,0c-16-16-42-16-58,0c-9.4,9.4-24.6,9.4-33.9,0&#10;&#9;&#9;&#9;&#9;c-7.7-7.7-18-12-29-12s-21.2,4.3-29,12c-9.4,9.4-24.6,9.4-33.9,0c-16-16-42-16-58,0c-9.4,9.4-24.6,9.4-33.9,0c-16-16-42-16-58,0&#10;&#9;&#9;&#9;&#9;c-9.4,9.4-24.6,9.4-33.9,0c-7.7-7.7-18-12-29-12c-11,0-21.2,4.3-29,12c-3.3,3.3-3.3,8.7,0,12c3.3,3.3,8.7,3.3,12,0&#10;&#9;&#9;&#9;&#9;c9.4-9.4,24.6-9.4,33.9,0c16,16,42,16,58,0c9.4-9.4,24.6-9.4,33.9,0c16,16,42,16,58,0c4.5-4.5,10.6-7,17-7s12.4,2.5,17,7&#10;&#9;&#9;&#9;&#9;c16,16,42,16,58,0c4.5-4.5,10.6-7,17-7s12.4,2.5,17,7c7.7,7.7,18,12,29,12c11,0,21.2-4.3,29-12c9.4-9.4,24.6-9.4,33.9,0&#10;&#9;&#9;&#9;&#9;c16,16,42,16,58,0c9.4-9.4,24.6-9.4,33.9,0c3.3,3.3,8.7,3.3,12,0c3.3-3.3,3.3-8.7,0-12&#10;&#9;&#9;&#9;&#9;C2938.9,1695.2,2928.6,1690.9,2917.6,1690.9z" style="fill: rgb(122, 206, 190);"/>
			<path class="st0" d="M2917.6,1776.4c-11,0-21.2,4.3-29,12c-9.4,9.4-24.6,9.4-33.9,0c-16-16-42-16-58,0c-9.4,9.4-24.6,9.4-33.9,0&#10;&#9;&#9;&#9;&#9;c-7.7-7.7-18-12-29-12s-21.2,4.3-29,12c-9.4,9.4-24.6,9.4-33.9,0c-16-16-42-16-58,0c-9.4,9.4-24.6,9.4-33.9,0c-16-16-42-16-58,0&#10;&#9;&#9;&#9;&#9;c-9.4,9.4-24.6,9.4-33.9,0c-7.7-7.7-18-12-29-12c-11,0-21.2,4.3-29,12c-3.3,3.3-3.3,8.7,0,12c3.3,3.3,8.7,3.3,12,0&#10;&#9;&#9;&#9;&#9;c9.4-9.4,24.6-9.4,33.9,0c16,16,42,16,58,0c9.4-9.4,24.6-9.4,33.9,0c16,16,42,16,58,0c4.5-4.5,10.6-7,17-7s12.4,2.5,17,7&#10;&#9;&#9;&#9;&#9;c16,16,42,16,58,0c4.5-4.5,10.6-7,17-7s12.4,2.5,17,7c7.7,7.7,18,12,29,12c11,0,21.2-4.3,29-12c9.4-9.4,24.6-9.4,33.9,0&#10;&#9;&#9;&#9;&#9;c16,16,42,16,58,0c9.4-9.4,24.6-9.4,33.9,0c3.3,3.3,8.7,3.3,12,0c3.3-3.3,3.3-8.7,0-12&#10;&#9;&#9;&#9;&#9;C2938.9,1780.7,2928.6,1776.4,2917.6,1776.4z" style="fill: rgb(122, 206, 190);"/>
			<path class="st0" d="M2917.6,1861.9c-11,0-21.2,4.3-29,12c-9.4,9.4-24.6,9.4-33.9,0c-16-16-42-16-58,0c-9.4,9.4-24.6,9.4-33.9,0&#10;&#9;&#9;&#9;&#9;c-7.7-7.7-18-12-29-12s-21.2,4.3-29,12c-9.4,9.4-24.6,9.4-33.9,0c-16-16-42-16-58,0c-9.4,9.4-24.6,9.4-33.9,0c-16-16-42-16-58,0&#10;&#9;&#9;&#9;&#9;c-9.4,9.4-24.6,9.4-33.9,0c-7.7-7.7-18-12-29-12c-11,0-21.2,4.3-29,12c-3.3,3.3-3.3,8.7,0,12c3.3,3.3,8.7,3.3,12,0&#10;&#9;&#9;&#9;&#9;c9.4-9.4,24.6-9.4,33.9,0c16,16,42,16,58,0c9.4-9.4,24.6-9.4,33.9,0c16,16,42,16,58,0c4.5-4.5,10.6-7,17-7s12.4,2.5,17,7&#10;&#9;&#9;&#9;&#9;c16,16,42,16,58,0c4.5-4.5,10.6-7,17-7s12.4,2.5,17,7c7.7,7.7,18,12,29,12c11,0,21.2-4.3,29-12c9.4-9.4,24.6-9.4,33.9,0&#10;&#9;&#9;&#9;&#9;c16,16,42,16,58,0c9.4-9.4,24.6-9.4,33.9,0c3.3,3.3,8.7,3.3,12,0c3.3-3.3,3.3-8.7,0-12&#10;&#9;&#9;&#9;&#9;C2938.9,1866.1,2928.6,1861.9,2917.6,1861.9z" style="fill: rgb(122, 206, 190);"/>
		</g><path class="st3" d="M601,1678c-59.6,0-108.1,48.5-108.1,108.1s48.5,108.1,108.1,108.1s108.1-48.5,108.1-108.1S660.6,1678,601,1678&#10;&#9;&#9;z M601,1852.2c-36.4,0-66.1-29.7-66.1-66.1s29.7-66.1,66.1-66.1s66.1,29.7,66.1,66.1S637.4,1852.2,601,1852.2z" style="fill: rgb(254, 242, 218);" transform="matrix(1.5212364196777344, 0, 0, 1.5212364196777344, -909.9486083984375, -1637.4676039325338)"/><path class="st3" d="M601,1471.9c22.7,28.5,18,70.2-10.5,92.9c-28.5,22.7-70.2,18-92.9-10.5l-32.8,26.2&#10;&#9;&#9;c37.2,46.6,105.3,54.3,151.9,17.2c46.6-37.2,54.3-105.3,17.2-151.9L601,1471.9z" style="fill: rgb(254, 242, 218);" transform="matrix(0.4634320437908172, -0.5829388499259949, 0.5829388499259949, 0.4634320437908172, -1142.9134521484375, 698.6702959917131)"/><path class="st3" d="M1834.8,284c-27.6-23.8-30.8-65.6-7-93.2l-31.8-27.4c-38.9,45.2-33.8,113.6,11.4,152.5&#10;&#9;&#9;c45.2,38.9,113.6,33.8,152.5-11.4L1928,277C1904.2,304.6,1862.4,307.8,1834.8,284z" style="fill: rgb(254, 242, 218);" transform="matrix(1, 0, 0, 1, 0, -7.105427357601002e-15)"/><path class="st3" d="M1134,942.1l452.9,298.3c8.6-6.1,17-12.6,25-19.7l-469.7-309.3C1138.9,921.5,1136.1,931.8,1134,942.1z" style="fill: rgb(254, 242, 218);" transform="matrix(1, 0, 0, 1, 0, -7.105427357601002e-15)"/><path class="st3" d="M1153.7,881.6l480.9,316.7c6.8-7.4,13.2-15.2,19.3-23.5l-486.2-320.2C1162.5,863.5,1157.9,872.5,1153.7,881.6&#10;&#9;&#9;&#9;z" style="fill: rgb(254, 242, 218);" transform="matrix(1, 0, 0, 1, 0, -7.105427357601002e-15)"/><path class="st3" d="M1128,1011.8l397.2,261.6c11-4.3,21.8-9.3,32.3-14.9L1129,976.2C1127.9,988.1,1127.6,1000,1128,1011.8z" style="fill: rgb(254, 242, 218);" transform="matrix(1, 0, 0, 1, 0, -7.105427357601002e-15)"/><path class="st3" d="M1396.5,711.1c-14.9,1.2-29.8,3.5-44.3,7l354.4,233.4c-2.6-14.7-6.3-29.3-11.1-43.5L1396.5,711.1z" style="fill: rgb(254, 242, 218);" transform="matrix(1, 0, 0, 1, 0, -7.105427357601002e-15)"/><path class="st3" d="M1143.4,1095.4l299,196.9c14.9-1.2,29.8-3.5,44.3-7l-354.4-233.4C1134.8,1066.7,1138.6,1081.2,1143.4,1095.4z&#10;&#9;&#9;&#9;" style="fill: rgb(254, 242, 218);" transform="matrix(1, 0, 0, 1, 0, -7.105427357601002e-15)"/><path class="st3" d="M1184.9,828.6l486.2,320.2c5.2-8.8,9.8-17.8,14-27l-480.9-316.7C1197.4,812.5,1190.9,820.3,1184.9,828.6z" style="fill: rgb(254, 242, 218);" transform="matrix(1, 0, 0, 1, 0, 0)"/><path class="st3" d="M1579.7,758.2c-38.8-25.5-81.4-40.6-124.6-45.9l216,142.3C1649.2,817,1618.5,783.8,1579.7,758.2z" style="fill: rgb(254, 242, 218);" transform="matrix(1, 0, 0, 1, 0, -7.105427357601002e-15)"/><path class="st3" d="M1259.1,1245.2c38.8,25.5,81.4,40.6,124.6,45.9l-216-142.3C1189.6,1186.4,1220.3,1219.6,1259.1,1245.2z" style="fill: rgb(254, 242, 218);" transform="matrix(1, 0, 0, 1, 0, -7.105427357601002e-15)"/><path class="st3" d="M1226.9,782.7l469.7,309.3c3.3-10.2,6.1-20.4,8.2-30.8L1251.9,763C1243.3,769.1,1234.9,775.6,1226.9,782.7z" style="fill: rgb(254, 242, 218);" transform="matrix(1, 0, 0, 1, 0, -7.105427357601002e-15)"/><path class="st3" d="M1313.6,730.1c-11,4.3-21.8,9.3-32.3,14.9l428.6,282.3c1-11.9,1.3-23.7,0.9-35.6L1313.6,730.1z" style="fill: rgb(254, 242, 218);" transform="matrix(1, 0, 0, 1, 0, -7.105427357601002e-15)"/><path class="st3" d="M1327.4,127.2c-64.5,0-116.9,52.5-116.9,116.9c0,64.5,52.5,116.9,116.9,116.9s116.9-52.5,116.9-116.9&#10;&#9;&#9;&#9;C1444.3,179.6,1391.9,127.2,1327.4,127.2z M1327.4,349.2c-57.9,0-105.1-47.1-105.1-105.1s47.1-105.1,105.1-105.1&#10;&#9;&#9;&#9;c57.9,0,105.1,47.1,105.1,105.1S1385.3,349.2,1327.4,349.2z" style="fill: rgb(254, 242, 218);" transform="matrix(1, 0, 0, 1, -1323.3994842760626, 517.2238103903481)"/><path class="st3" d="M1327.4,154.2c-49.6,0-90,40.4-90,90s40.4,90,90,90c49.6,0,90-40.4,90-90S1377,154.2,1327.4,154.2z&#10;&#9;&#9;&#9; M1327.4,322.2c-43.1,0-78.1-35-78.1-78.1c0-43.1,35-78.1,78.1-78.1s78.1,35,78.1,78.1C1405.5,287.2,1370.4,322.2,1327.4,322.2z" style="fill: rgb(254, 242, 218);" transform="matrix(1, 0, 0, 1, -1332.068047566074, 517.2238182961237)"/><path class="st3" d="M2309.1,69.6c-64.5,0-116.9,52.5-116.9,116.9c0,64.5,52.5,116.9,116.9,116.9c64.5,0,116.9-52.5,116.9-116.9&#10;&#9;&#9;&#9;C2426.1,122,2373.6,69.6,2309.1,69.6z M2309.1,291.6c-57.9,0-105.1-47.1-105.1-105.1c0-57.9,47.1-105.1,105.1-105.1&#10;&#9;&#9;&#9;c57.9,0,105.1,47.1,105.1,105.1C2414.2,244.4,2367.1,291.6,2309.1,291.6z" style="fill: rgb(254, 242, 218);" transform="matrix(1, 0, 0, 1, 0, -7.105427357601002e-15)"/><path class="st3" d="M2309.1,96.6c-49.6,0-90,40.4-90,90c0,49.6,40.4,90,90,90c49.6,0,90-40.4,90-90&#10;&#9;&#9;&#9;C2399.1,136.9,2358.7,96.6,2309.1,96.6z M2309.1,264.6c-43.1,0-78.1-35-78.1-78.1c0-43.1,35-78.1,78.1-78.1&#10;&#9;&#9;&#9;c43.1,0,78.1,35,78.1,78.1C2387.2,229.6,2352.2,264.6,2309.1,264.6z" style="fill: rgb(254, 242, 218);" transform="matrix(1, 0, 0, 1, 0, -7.105427357601002e-15)"/><path class="st3" d="M1237.4,1659.5c-64.5,0-116.9,52.5-116.9,116.9c0,64.5,52.5,116.9,116.9,116.9c64.5,0,116.9-52.5,116.9-116.9&#10;&#9;&#9;&#9;C1354.4,1711.9,1301.9,1659.5,1237.4,1659.5z M1237.4,1881.4c-57.9,0-105.1-47.1-105.1-105.1c0-57.9,47.1-105.1,105.1-105.1&#10;&#9;&#9;&#9;c57.9,0,105.1,47.1,105.1,105.1C1342.5,1834.3,1295.4,1881.4,1237.4,1881.4z" style="fill: rgb(254, 242, 218);" transform="matrix(1, 0, 0, 1, 0, -7.105427357601002e-15)"/><path class="st3" d="M1237.4,1686.4c-49.6,0-90,40.4-90,90c0,49.6,40.4,90,90,90c49.6,0,90-40.4,90-90&#10;&#9;&#9;&#9;C1327.4,1726.8,1287,1686.4,1237.4,1686.4z M1237.4,1854.5c-43.1,0-78.1-35-78.1-78.1c0-43.1,35-78.1,78.1-78.1&#10;&#9;&#9;&#9;c43.1,0,78.1,35,78.1,78.1C1315.5,1819.4,1280.5,1854.5,1237.4,1854.5z" style="fill: rgb(254, 242, 218);" transform="matrix(1, 0, 0, 1, 0, -7.105427357601002e-15)"/><path class="st3" d="M186.2,1695.5c-64.5,0-116.9,52.5-116.9,116.9c0,64.5,52.5,116.9,116.9,116.9c64.5,0,116.9-52.5,116.9-116.9&#10;&#9;&#9;&#9;C303.1,1748,250.7,1695.5,186.2,1695.5z M186.2,1917.5c-57.9,0-105.1-47.1-105.1-105.1c0-57.9,47.1-105.1,105.1-105.1&#10;&#9;&#9;&#9;c57.9,0,105.1,47.1,105.1,105.1C291.3,1870.4,244.1,1917.5,186.2,1917.5z" style="fill: rgb(254, 242, 218);" transform="matrix(1, 0, 0, 1, 0, -7.105427357601002e-15)"/><path class="st3" d="M186.2,1722.5c-49.6,0-90,40.4-90,90c0,49.6,40.4,90,90,90c49.6,0,90-40.4,90-90&#10;&#9;&#9;&#9;C276.2,1762.8,235.8,1722.5,186.2,1722.5z M186.2,1890.5c-43.1,0-78.1-35-78.1-78.1c0-43.1,35-78.1,78.1-78.1&#10;&#9;&#9;&#9;c43.1,0,78.1,35,78.1,78.1C264.3,1855.5,229.3,1890.5,186.2,1890.5z" style="fill: rgb(254, 242, 218);" transform="matrix(1, 0, 0, 1, 0, -7.105427357601002e-15)"/>
<path d="M 1106.199951171875 1314.5999755859375 L 1298.800048828125 2000 L 3000 2000 L 3000 1213.300048828125 L 1500 952.9000244140625 Z" class="st2" style="fill: rgb(240, 146, 149); fill-opacity: 1;" transform="matrix(-0.11936857551336288, 0.9928572177886963, -0.9928572177886963, -0.11936857551336288, 1277.7621640186935, -1622.1427001953123)"/><path class="st5" d="M790.8,1013.6c-11,0-21.2,4.3-29,12c-9.4,9.4-24.6,9.4-33.9,0c-16-16-42-16-58,0c-9.4,9.4-24.6,9.4-33.9,0&#10;&#9;&#9;&#9;c-7.7-7.7-18-12-29-12s-21.2,4.3-29,12c-9.4,9.4-24.6,9.4-33.9,0c-16-16-42-16-58,0c-9.4,9.4-24.6,9.4-33.9,0c-16-16-42-16-58,0&#10;&#9;&#9;&#9;c-9.4,9.4-24.6,9.4-33.9,0c-7.7-7.7-18-12-29-12c-11,0-21.2,4.3-29,12c-3.3,3.3-3.3,8.7,0,12c3.3,3.3,8.7,3.3,12,0&#10;&#9;&#9;&#9;c9.4-9.4,24.6-9.4,33.9,0c16,16,42,16,58,0c9.4-9.4,24.6-9.4,33.9,0c16,16,42,16,58,0c4.5-4.5,10.6-7,17-7s12.4,2.5,17,7&#10;&#9;&#9;&#9;c16,16,42,16,58,0c4.5-4.5,10.6-7,17-7s12.4,2.5,17,7c7.7,7.7,18,12,29,12c11,0,21.2-4.3,29-12c9.4-9.4,24.6-9.4,33.9,0&#10;&#9;&#9;&#9;c16,16,42,16,58,0c9.4-9.4,24.6-9.4,33.9,0c3.3,3.3,8.7,3.3,12,0c3.3-3.3,3.3-8.7,0-12C812.1,1017.9,801.8,1013.6,790.8,1013.6z" style="fill: rgb(254, 242, 218);" transform="matrix(1, 0, 0, 1, -644.6693132973887, -727.973926264613)"/><path class="st5" d="M790.8,1013.6c-11,0-21.2,4.3-29,12c-9.4,9.4-24.6,9.4-33.9,0c-16-16-42-16-58,0c-9.4,9.4-24.6,9.4-33.9,0&#10;&#9;&#9;&#9;c-7.7-7.7-18-12-29-12s-21.2,4.3-29,12c-9.4,9.4-24.6,9.4-33.9,0c-16-16-42-16-58,0c-9.4,9.4-24.6,9.4-33.9,0c-16-16-42-16-58,0&#10;&#9;&#9;&#9;c-9.4,9.4-24.6,9.4-33.9,0c-7.7-7.7-18-12-29-12c-11,0-21.2,4.3-29,12c-3.3,3.3-3.3,8.7,0,12c3.3,3.3,8.7,3.3,12,0&#10;&#9;&#9;&#9;c9.4-9.4,24.6-9.4,33.9,0c16,16,42,16,58,0c9.4-9.4,24.6-9.4,33.9,0c16,16,42,16,58,0c4.5-4.5,10.6-7,17-7s12.4,2.5,17,7&#10;&#9;&#9;&#9;c16,16,42,16,58,0c4.5-4.5,10.6-7,17-7s12.4,2.5,17,7c7.7,7.7,18,12,29,12c11,0,21.2-4.3,29-12c9.4-9.4,24.6-9.4,33.9,0&#10;&#9;&#9;&#9;c16,16,42,16,58,0c9.4-9.4,24.6-9.4,33.9,0c3.3,3.3,8.7,3.3,12,0c3.3-3.3,3.3-8.7,0-12C812.1,1017.9,801.8,1013.6,790.8,1013.6z" style="fill: rgb(254, 242, 218);" transform="matrix(1, 0, 0, 1, -644.6693681364973, -687.5206263991333)"/><path d="M 678.2557373046875 113.79202270507812" style="fill: rgb(240, 146, 149); fill-opacity: 1; stroke: rgb(0, 0, 0); stroke-opacity: 1; stroke-width: 0; paint-order: fill;"/><path d="M 323.500006 195.899994 A 9.4 9.4 0 0 1 314.100006 205.299994 A 9.4 9.4 0 0 1 304.700006 195.899994 A 9.4 9.4 0 0 1 314.100006 186.499994 A 9.4 9.4 0 0 1 323.500006 195.899994 Z" class="st3" style="fill: rgb(254, 242, 218);" transform="matrix(1.7897212505340574, 0, 0, 1.7897212505340574, -469.1297861828598, -179.41990410582974)"/><path d="M 323.500006 195.899994 A 9.4 9.4 0 0 1 314.100006 205.299994 A 9.4 9.4 0 0 1 304.700006 195.899994 A 9.4 9.4 0 0 1 314.100006 186.499994 A 9.4 9.4 0 0 1 323.500006 195.899994 Z" class="st3" style="fill: rgb(254, 242, 218);" transform="matrix(1.7897212505340576, 0, 0, 1.7897212505340576, -568.0447646008582, -281.6631468587642)"/><path d="M 323.500006 195.899994 A 9.4 9.4 0 0 1 314.100006 205.299994 A 9.4 9.4 0 0 1 304.700006 195.899994 A 9.4 9.4 0 0 1 314.100006 186.499994 A 9.4 9.4 0 0 1 323.500006 195.899994 Z" class="st3" style="fill: rgb(254, 242, 218);" transform="matrix(1.7897212505340576, 0, 0, 1.7897212505340576, -537.0015798277398, -243.87137892379505)"/><path d="M 323.500006 195.899994 A 9.4 9.4 0 0 1 314.100006 205.299994 A 9.4 9.4 0 0 1 304.700006 195.899994 A 9.4 9.4 0 0 1 314.100006 186.499994 A 9.4 9.4 0 0 1 323.500006 195.899994 Z" class="st3" style="fill: rgb(254, 242, 218);" transform="matrix(1.7897212505340576, 0, 0, 1.7897212505340576, -503.2589087327409, -210.80358886718747)"/><path d="M 323.500006 195.899994 A 9.4 9.4 0 0 1 314.100006 205.299994 A 9.4 9.4 0 0 1 304.700006 195.899994 A 9.4 9.4 0 0 1 314.100006 186.499994 A 9.4 9.4 0 0 1 323.500006 195.899994 Z" class="st3" style="fill: rgb(254, 242, 218);" transform="matrix(7.708549499511718, 0, 0, 7.708549499511718, -2406.6298637460313, 57.92550532257053)"/><path d="M 323.500006 195.899994 A 9.4 9.4 0 0 1 314.100006 205.299994 A 9.4 9.4 0 0 1 304.700006 195.899994 A 9.4 9.4 0 0 1 314.100006 186.499994 A 9.4 9.4 0 0 1 323.500006 195.899994 Z" class="st3" style="fill: rgb(254, 242, 218);" transform="matrix(1.7897212505340574, 0, 0, 1.7897212505340574, -434.02674930587574, -149.02062438283124)"/><path class="st3" d="M1327.4,154.2c-49.6,0-90,40.4-90,90s40.4,90,90,90c49.6,0,90-40.4,90-90S1377,154.2,1327.4,154.2z&#10;&#9;&#9;&#9; M1327.4,322.2c-43.1,0-78.1-35-78.1-78.1c0-43.1,35-78.1,78.1-78.1s78.1,35,78.1,78.1C1405.5,287.2,1370.4,322.2,1327.4,322.2z" style="fill: rgb(254, 242, 218);" transform="matrix(0.9999999999999999, 0, 0, 0.9999999999999999, -1161.4421749430799, 253.37452175927478)"/><path class="st3" d="M1327.4,154.2c-49.6,0-90,40.4-90,90s40.4,90,90,90c49.6,0,90-40.4,90-90S1377,154.2,1327.4,154.2z&#10;&#9;&#9;&#9; M1327.4,322.2c-43.1,0-78.1-35-78.1-78.1c0-43.1,35-78.1,78.1-78.1s78.1,35,78.1,78.1C1405.5,287.2,1370.4,322.2,1327.4,322.2z" style="fill: rgb(254, 242, 218);" transform="matrix(0.752724826335907, 0, 0, 0.752724826335907, -830.9837568075052, 315.9846129919946)"/></svg>